<svg width="149" height="65" viewBox="0 0 149 65" fill="none" xmlns="http://www.w3.org/2000/svg">
<path d="M43.3899 59.5994C39.8109 59.5994 36.1619 59.3886 32.8964 57.8993C24.7751 54.1953 19.8901 46.5881 19.8901 38.0209C19.8901 27.7825 28.0009 19.4846 38.0058 19.4846C44.0304 19.4846 49.366 22.4958 52.659 27.1248H58.5436C54.6912 19.5356 46.9405 14.3521 38.0058 14.3521C25.2309 14.3521 14.8743 24.9492 14.8743 38.0209C14.8743 49.7406 20.9053 59.4711 33.4164 63.5512C36.4143 64.5287 39.5905 64.732 42.739 64.732H64.7769V59.5994H43.3899Z" fill="#CD9967 "/>
<path d="M37 38.8537H29V30.8516H37V38.8537Z" fill="white"/>
<path d="M47 38.8537H39V30.8516H47V38.8537Z" fill="#CD9967 "/>
<path d="M37 49.8569H29V40.8545H37V49.8569Z" fill="#CD9967 "/>
<path d="M47 49.8569H39V40.8545H47V49.8569Z" fill="white"/>
<path d="M0 37.862L34.8477 0.84375V8.62891L7.22777 37.862H0Z" fill="#CD9967 "/>
<path d="M60.3059 27.1245L34.8477 0.84375V8.62891L53.0781 27.1245H60.3059Z" fill="#CD9967 "/>
<path d="M30.8571 7.94238H37.8406L41.8311 13.5199V19.0975H25.8689V13.5199L30.8571 7.94238Z" fill="#CD9967 "/>
<path d="M54.96 53.8578L61.62 43.205L54.84 32.8522H60.06L64.53 39.6641L68.52 32.8522H73.62L66.99 43.4151L73.83 53.8578H68.61L64.11 46.926L60.06 53.8578H54.96Z" fill="white"/>
<path d="M85.8436 54.2179C85.1036 54.2179 84.4336 54.1279 83.8336 53.9479C83.2536 53.7678 82.7336 53.5178 82.2736 53.1977C81.8336 52.8576 81.4536 52.4775 81.1336 52.0574L80.6236 53.8578H76.6336V32.2521H81.1336V40.7143C81.6136 40.0342 82.2336 39.474 82.9936 39.0339C83.7536 38.5938 84.6936 38.3737 85.8136 38.3737C87.1936 38.3737 88.4236 38.7238 89.5036 39.424C90.6036 40.1042 91.4736 41.0444 92.1136 42.2448C92.7536 43.4251 93.0736 44.7854 93.0736 46.3258C93.0736 47.8262 92.7536 49.1766 92.1136 50.3769C91.4736 51.5772 90.6136 52.5175 89.5336 53.1977C88.4536 53.8779 87.2236 54.2179 85.8436 54.2179ZM84.7336 50.2869C85.4536 50.2869 86.0936 50.1169 86.6536 49.7768C87.2336 49.4367 87.6836 48.9765 88.0036 48.3964C88.3236 47.7962 88.4836 47.106 88.4836 46.3258C88.4836 45.5456 88.3236 44.8554 88.0036 44.2553C87.6836 43.6351 87.2336 43.155 86.6536 42.8149C86.0936 42.4748 85.4536 42.3048 84.7336 42.3048C83.9936 42.3048 83.3336 42.4848 82.7536 42.8449C82.1936 43.185 81.7536 43.6551 81.4336 44.2553C81.1136 44.8354 80.9536 45.5256 80.9536 46.3258C80.9536 47.086 81.1136 47.7762 81.4336 48.3964C81.7536 48.9966 82.1936 49.4667 82.7536 49.8068C83.3336 50.1269 83.9936 50.2869 84.7336 50.2869Z" fill="white"/>
<path d="M102.226 54.2179C100.966 54.2179 99.8961 53.9579 99.0161 53.4377C98.1561 52.9176 97.4961 52.1574 97.0361 51.1571C96.5961 50.1369 96.3761 48.8965 96.3761 47.4361V38.7338H100.876V46.986C100.876 48.1063 101.106 48.9665 101.566 49.5667C102.026 50.1469 102.766 50.4369 103.786 50.4369C104.406 50.4369 104.956 50.2969 105.436 50.0168C105.936 49.7367 106.316 49.3266 106.576 48.7865C106.856 48.2464 106.996 47.5862 106.996 46.806V38.7338H111.496V53.8578H107.566L107.206 51.4572C106.766 52.2774 106.126 52.9476 105.286 53.4677C104.446 53.9679 103.426 54.2179 102.226 54.2179Z" fill="white"/>
<path d="M115.453 53.8578V38.7338H119.953V53.8578H115.453ZM117.703 36.9934C116.903 36.9934 116.253 36.7633 115.753 36.3032C115.253 35.843 115.003 35.2629 115.003 34.5627C115.003 33.8425 115.253 33.2524 115.753 32.7922C116.253 32.3321 116.903 32.1021 117.703 32.1021C118.523 32.1021 119.183 32.3321 119.683 32.7922C120.203 33.2524 120.463 33.8425 120.463 34.5627C120.463 35.2629 120.203 35.843 119.683 36.3032C119.183 36.7633 118.523 36.9934 117.703 36.9934Z" fill="white"/>
<path d="M123.919 53.8578V32.2521H128.419V53.8578H123.919Z" fill="white"/>
<path d="M139.047 54.2179C137.707 54.2179 136.487 53.8779 135.387 53.1977C134.307 52.5175 133.447 51.5872 132.807 50.4069C132.187 49.2066 131.877 47.8462 131.877 46.3258C131.877 44.7854 132.197 43.4251 132.837 42.2448C133.477 41.0444 134.347 40.1042 135.447 39.424C136.567 38.7238 137.807 38.3737 139.167 38.3737C140.207 38.3737 141.117 38.5638 141.897 38.9439C142.677 39.304 143.317 39.8341 143.817 40.5343V32.2521H148.317V53.8578H144.327L143.817 51.9073C143.517 52.3274 143.147 52.7175 142.707 53.0776C142.287 53.4177 141.777 53.6878 141.177 53.8879C140.577 54.1079 139.867 54.2179 139.047 54.2179ZM140.217 50.2869C140.957 50.2869 141.607 50.1169 142.167 49.7768C142.747 49.4367 143.187 48.9665 143.487 48.3664C143.807 47.7662 143.967 47.076 143.967 46.2958C143.967 45.5156 143.807 44.8254 143.487 44.2253C143.187 43.6251 142.747 43.155 142.167 42.8149C141.607 42.4748 140.957 42.3048 140.217 42.3048C139.497 42.3048 138.847 42.4748 138.267 42.8149C137.707 43.155 137.267 43.6251 136.947 44.2253C136.627 44.8254 136.467 45.5056 136.467 46.2658C136.467 47.046 136.627 47.7462 136.947 48.3664C137.267 48.9665 137.707 49.4367 138.267 49.7768C138.847 50.1169 139.497 50.2869 140.217 50.2869Z" fill="white"/>
</svg>
