<?xml version="1.0" encoding="UTF-8"?>
<!DOCTYPE svg PUBLIC "-//W3C//DTD SVG 1.1//EN" "http://www.w3.org/Graphics/SVG/1.1/DTD/svg11.dtd">
<!-- Creator: CorelDRAW -->
<svg xmlns="http://www.w3.org/2000/svg" xml:space="preserve" width="512px" height="512px" version="1.1" style="shape-rendering:geometricPrecision; text-rendering:geometricPrecision; image-rendering:optimizeQuality; fill-rule:evenodd; clip-rule:evenodd"
viewBox="0 0 512 512"
 xmlns:xlink="http://www.w3.org/1999/xlink">
 <defs>
  <style type="text/css">
   <![CDATA[
    .fil0 {fill:black}
   ]]>
  </style>
 </defs>
 <g id="Layer_x0020_1">
  <metadata id="CorelCorpID_0Corel-Layer"/>
  <g id="_407970872">
   <g>
    <g id="_407968952">
     <path class="fil0" d="M217 407c-4,0 -8,-2 -12,-4 -9,-5 -16,-17 -18,-29 -7,1 -14,-1 -19,-5 -7,-5 -10,-14 -11,-20 -10,1 -18,-2 -24,-7 -6,-6 -8,-14 -8,-21 -16,2 -22,-6 -25,-11 -5,-11 -1,-26 7,-32 14,-10 28,-20 42,-31 29,-21 59,-43 89,-64 1,-1 3,-2 4,-2l15 0c17,0 36,20 48,34 1,1 2,2 3,3 5,6 13,6 17,3 6,-4 6,-13 0,-23 -1,-3 -3,-6 -5,-10 -3,-7 -7,-14 -10,-20 -9,-12 -38,-26 -48,-31 -26,-11 -43,-3 -44,-2 0,0 0,0 0,0l-63 30c-1,0 -2,1 -3,1l-25 0c-4,0 -8,-4 -8,-8 0,-4 4,-8 8,-8l23 0 62 -29 0 0c4,-2 25,-10 56,2 4,2 41,18 54,36 4,7 8,15 12,23 2,3 3,6 5,9 10,21 4,35 -5,42 -11,8 -27,6 -37,-4 -1,-1 -2,-3 -3,-4 -9,-9 -26,-29 -37,-29l-12 0c-29,22 -58,43 -87,64 -14,10 -28,20 -42,31 -2,1 -4,8 -2,13 3,4 13,2 18,1 2,-1 5,0 7,2 2,2 2,4 2,7 -1,3 -2,13 3,17 4,4 12,3 19,1 2,0 4,0 6,2 2,1 3,4 3,6 0,3 1,13 6,17 3,3 7,3 14,1 2,0 4,0 6,1 2,2 3,4 3,7 0,8 5,20 12,24 3,2 5,2 8,0l29 -15 4 -3c4,-2 8,-1 10,2 3,4 1,9 -2,11l-5 3c0,0 0,0 0,0l-28 15c-4,3 -8,4 -12,4zm177 -104c-3,0 -5,-1 -7,-4 -2,-3 -1,-8 3,-10l42 -26c4,-3 9,-1 11,2 2,4 1,8 -3,10l-42 27c-2,0 -3,1 -4,1z"/>
    </g>
    <g id="_407965592">
     <path class="fil0" d="M112 291c-1,0 -2,0 -4,-1l-34 -20c-3,-2 -5,-6 -3,-10 2,-3 7,-5 11,-3l34 20c4,2 5,7 3,11 -2,2 -4,3 -7,3z"/>
    </g>
    <g id="_407966984">
     <path class="fil0" d="M386 168c-34,0 -42,-6 -54,-15 -6,-6 -14,-12 -32,-19 -9,-3 -26,-3 -31,1 -3,3 -7,3 -10,0 -3,-2 -4,-7 -1,-10 11,-12 37,-9 47,-5 21,8 30,16 37,21 9,7 13,11 44,11 4,0 8,4 8,8 0,4 -4,8 -8,8z"/>
    </g>
    <g id="_407958200">
     <path class="fil0" d="M384 345c-2,0 -4,-1 -7,-1 -7,-2 -13,-6 -17,-13 -2,-3 -1,-8 3,-10 3,-2 8,-1 10,3 2,2 5,4 8,5 3,1 6,0 9,-1 6,-4 8,-12 4,-17l-21 -34c-3,-6 -11,-8 -17,-4 -5,3 -7,11 -4,17 3,3 1,8 -2,10 -4,2 -8,1 -10,-2 -8,-13 -4,-30 9,-38 12,-8 29,-4 37,9l21 34c8,13 4,30 -9,37 -4,3 -9,5 -14,5z"/>
    </g>
    <g id="_407967680">
     <path class="fil0" d="M357 377c-9,0 -18,-5 -23,-13l-36 -57c-3,-7 -5,-14 -3,-21 2,-7 6,-13 12,-17 5,-3 10,-4 15,-4 9,0 18,5 23,13l36 57c3,6 5,14 3,21 -2,7 -6,13 -12,17 -5,3 -10,4 -15,4zm-35 -97c-3,0 -5,1 -7,2 -2,2 -4,4 -5,7 -1,4 0,7 1,10l36 57c2,4 6,6 10,6 2,0 5,-1 7,-2 2,-2 4,-4 5,-7 1,-4 0,-7 -1,-10l-36 -57c-2,-4 -6,-6 -10,-6z"/>
    </g>
    <g id="_407970560">
     <path class="fil0" d="M321 395c-9,0 -18,-5 -23,-13 -2,-4 -1,-8 2,-10 4,-3 9,-2 11,2 3,6 11,8 17,4 6,-4 7,-11 4,-17 -2,-4 -1,-8 2,-10 4,-3 9,-1 11,2 8,13 4,30 -9,38 -5,3 -10,4 -15,4zm-47 -58c-2,0 -5,-2 -6,-4 -4,-6 -5,-14 -3,-21 1,-7 6,-13 12,-17 6,-4 13,-5 21,-3 7,2 13,6 17,12 2,4 1,8 -3,11 -3,2 -8,1 -10,-3 -2,-3 -5,-5 -8,-5 -3,-1 -6,-1 -9,1 -3,2 -5,5 -6,8 0,3 0,6 2,9 2,4 1,8 -3,10 -1,1 -2,2 -4,2z"/>
    </g>
    <g id="_407960792">
     <path class="fil0" d="M286 414c-9,0 -18,-5 -23,-13l-29 -47c-4,-7 -5,-14 -3,-21 1,-7 6,-13 12,-17 4,-3 9,-4 14,-4 10,0 19,5 24,13l29 47c3,6 5,13 3,21 -2,7 -6,13 -12,17 -5,2 -10,4 -15,4zm-29 -87c-2,0 -4,1 -6,2 -3,1 -5,4 -6,7 0,4 0,7 2,10l29 47c2,3 6,6 10,6 2,0 5,-1 7,-2 2,-2 4,-5 5,-8 1,-3 0,-7 -1,-9l-29 -47c-2,-4 -6,-6 -11,-6z"/>
    </g>
    <g id="_407958776">
     <path class="fil0" d="M134 320c-3,0 -5,-1 -6,-3 -3,-3 -3,-8 1,-11l40 -34c3,-2 8,-2 11,1 3,3 2,8 -1,11l-41 34c-1,1 -3,2 -4,2z"/>
    </g>
    <g id="_407965040">
     <path class="fil0" d="M164 347c-2,0 -4,-1 -5,-3 -3,-3 -3,-8 1,-10l32 -27c4,-3 8,-2 11,1 3,3 2,8 -1,11l-33 26c-1,2 -3,2 -5,2z"/>
    </g>
    <g id="_407959472">
     <path class="fil0" d="M194 373c-2,0 -5,-1 -6,-3 -3,-3 -2,-8 1,-10l19 -16c3,-3 8,-2 11,1 2,3 2,8 -1,11l-19 15c-2,1 -4,2 -5,2z"/>
    </g>
    <g id="_407965136">
     <path class="fil0" d="M460 297c0,0 0,0 0,0 -12,0 -22,-7 -27,-18l-59 -128c-7,-15 -1,-33 14,-40l22 -10c4,-2 8,-3 13,-3 11,0 22,7 27,18l59 128c3,7 4,15 1,23 -3,7 -8,14 -16,17l-21 10c-4,2 -8,3 -13,3zm-37 -184c-3,0 -5,1 -7,2l-21 10c-8,3 -11,12 -8,20l59 128c3,5 8,9 14,9l0 0c2,0 5,-1 7,-2l21 -10c4,-1 6,-5 8,-8 1,-4 1,-8 -1,-12l-59 -128c-2,-5 -8,-9 -13,-9z"/>
    </g>
    <g id="_407971592">
     <path class="fil0" d="M52 297c-5,0 -9,-1 -13,-3l-21 -10c-8,-3 -13,-10 -16,-17 -3,-8 -2,-16 1,-23l59 -128c5,-11 16,-18 27,-18 5,0 9,1 13,3l22 10c15,7 21,25 14,40l-59 128c-5,11 -15,18 -27,18zm37 -184c-5,0 -11,4 -13,9l-59 128c-2,4 -2,8 -1,12 2,3 4,7 8,8l21 10c2,1 5,2 7,2 6,0 11,-4 14,-9l59 -128c3,-8 0,-17 -8,-20l-21 -10c-2,-1 -4,-2 -7,-2z"/>
    </g>
   </g>
  </g>
 </g>
</svg>
