<svg xmlns="http://www.w3.org/2000/svg" fill="#ffa500" id="Layer_3" data-name="Layer 3" viewBox="0 0 64 64" width="512" height="512"><path d="M59.923,35.052,51,31.333v-2.67A9.948,9.948,0,0,0,55.8,22H56a3,3,0,0,0,.082-6l.98-2.272a8.078,8.078,0,0,0-4.07-10.551L50.2,1.907A10.248,10.248,0,0,0,39.968,3.019L38.412,4.193a6.259,6.259,0,0,0-3.8,2.831,6.2,6.2,0,0,0-.552,5.216,10.372,10.372,0,0,0-4.561.111,8.047,8.047,0,0,0-4.507-9.173L22.2,1.907A10.248,10.248,0,0,0,11.968,3.019L10.412,4.193a6.23,6.23,0,0,0-4.03,8.822L7.876,16A3,3,0,0,0,8,22h.2A9.962,9.962,0,0,0,13,28.661v2.672L4.077,35.052A4.987,4.987,0,0,0,1,39.667V53a1,1,0,0,0,1,1H9v8a1,1,0,0,0,1,1H54a1,1,0,0,0,1-1V54h7a1,1,0,0,0,1-1V39.667A4.987,4.987,0,0,0,59.923,35.052ZM35.373,14.727,38.164,16a6.078,6.078,0,0,1,3.061,7.939l-.3.685L39.9,22.553a1,1,0,0,0-1.5-.353l-1.6,1.2a8,8,0,0,1-9.6,0l-1.6-1.2a.989.989,0,0,0-.829-.173,1,1,0,0,0-.666.526L23,24.771l-.826-1.651A4.229,4.229,0,0,1,25.954,17a4.671,4.671,0,0,1,3.893,2.083l.314.472,1.664-1.11-.314-.471A6.661,6.661,0,0,0,27.74,15.25,8.213,8.213,0,0,1,35.373,14.727ZM42,29h1a1,1,0,0,1,0,2H42ZM29,40.539a9.992,9.992,0,0,0,6,0v2.047l-3,3-3-3ZM32,39a8.009,8.009,0,0,1-8-8V27.236l1.358-2.717L26,25a10,10,0,0,0,12,0l.642-.481L40,27.236V31A8.009,8.009,0,0,1,32,39ZM22,31H21a1,1,0,0,1,0-2h1ZM9,51.04V52H3V39.667A2.994,2.994,0,0,1,4.846,36.9l9.539-3.974A1,1,0,0,0,15,32V28.064a1.046,1.046,0,0,0-.579-.907,7.968,7.968,0,0,1-4.372-6.267A1,1,0,0,0,9.055,20H8a1,1,0,0,1,0-2H9a1,1,0,0,0,1-1.007l-.007-1a1,1,0,0,0-.105-.44L8.171,12.12A4.228,4.228,0,0,1,11.059,6.1a1.025,1.025,0,0,0,.391-.179l1.72-1.3a8.218,8.218,0,0,1,8.2-.89L24.164,5a6.078,6.078,0,0,1,3.061,7.939l-.162.375a9.687,9.687,0,0,0-1.093.705L24.393,15.2l0,0a6.221,6.221,0,0,0-4.014,8.812L21.875,27H21a3,3,0,0,0,0,6h1.2A10.024,10.024,0,0,0,27,39.647V42.24L12.662,46.223A5.014,5.014,0,0,0,9,51.04ZM53,61H47V53H45v8H19V53H17v8H11V51.04a3.007,3.007,0,0,1,2.2-2.89l14.509-4.03,3.587,3.587a1,1,0,0,0,1.414,0l3.587-3.587L50.8,48.15A3.007,3.007,0,0,1,53,51.04Zm8-9H55v-.96a5.014,5.014,0,0,0-3.662-4.817L37,42.24V39.647A10.024,10.024,0,0,0,41.8,33H43a3,3,0,0,0,0-6h-.918l.98-2.271a8.078,8.078,0,0,0-4.07-10.551l-2.32-1.057-.5-1A4.228,4.228,0,0,1,39.059,6.1a1.025,1.025,0,0,0,.391-.179l1.72-1.3a8.218,8.218,0,0,1,8.2-.89L52.164,5a6.078,6.078,0,0,1,3.061,7.939L54.075,15.6a1,1,0,0,0-.082.4l.007,1A1,1,0,0,0,55,18h1a1,1,0,0,1,0,2H54.945a1,1,0,0,0-.994.89,7.964,7.964,0,0,1-4.4,6.279,1,1,0,0,0-.555.895V32a1,1,0,0,0,.615.923L59.154,36.9A2.994,2.994,0,0,1,61,39.667Z"/></svg>
