<svg version="1.1" xmlns="http://www.w3.org/2000/svg" xmlns:xlink="http://www.w3.org/1999/xlink" x="0px" y="0px" viewBox="0 0 512 512" style="enable-background:new 0 0 512 512;" xml:space="preserve">
<g id="_x32_80_x2C__Global_x2C__Globe_x2C__Internet_x2C__World_Wide">
	<g>
		<g>
			<path d="M203.784,155.183c-4.499,8.587-8.372,18.057-11.597,28.194c18.176,8.703,38.088,13.593,58.813,14.271V113.41
				C233.393,115.745,216.785,130.364,203.784,155.183z" id="id_101" style="fill: rgb(255, 165, 0);"></path>
			<path d="M341.043,256h62.791c-1.193-35.747-15.129-68.317-37.402-93.31c-10.491,10.286-22.146,18.933-34.683,25.809
				C337.459,209.184,340.649,232.143,341.043,256z" id="id_102" style="fill: rgb(255, 174, 0);"></path>
			<path d="M328.785,178.689c11.082-6.289,21.409-14.067,30.746-23.238c-18.49-18.142-41.709-31.476-67.615-37.962
				C309.653,132.632,321.539,156.529,328.785,178.689z" id="id_103" style="fill: rgb(255, 176, 5);"></path>
			<path d="M308.215,155.183c-13-24.818-29.608-39.438-47.215-41.773v84.239c20.724-0.678,40.637-5.568,58.811-14.271
				C316.587,173.24,312.713,163.77,308.215,155.183z" id="id_104" style="fill: rgb(255, 174, 0);"></path>
			<path d="M322.637,193.113c-19.1,8.897-39.955,13.878-61.637,14.542V256h70.043C330.666,233.772,327.777,212.417,322.637,193.113z
				" id="id_105" style="fill: rgb(255, 174, 0);"></path>
			<path d="M189.365,328.896c19.105-8.901,39.963-13.887,61.635-14.552V266h-70.045C181.333,288.231,184.223,309.59,189.365,328.896
				z" id="id_106" style="fill: rgb(255, 174, 0);"></path>
			<path d="M180.955,256H251v-48.345c-21.682-0.665-42.538-5.646-61.637-14.543C184.223,212.415,181.333,233.771,180.955,256z" id="id_107" style="fill: rgb(255, 174, 0);"></path>
			<path d="M183.217,343.317c-11.084,6.288-21.414,14.061-30.751,23.23c18.491,18.142,41.71,31.477,67.618,37.963
				C202.349,389.372,190.463,365.479,183.217,343.317z" id="id_108" style="fill: rgb(255, 174, 0);"></path>
			<path d="M170.956,266h-62.792c1.193,35.747,15.129,68.316,37.402,93.31c10.491-10.284,22.148-18.929,34.685-25.806
				C174.54,312.818,171.35,289.858,170.956,266z" id="id_109" style="fill: rgb(255, 174, 0);"></path>
			<path d="M331.043,266H261v48.343c21.682,0.664,42.537,5.645,61.637,14.542C327.777,309.582,330.666,288.228,331.043,266z" id="id_110" style="fill: rgb(255, 174, 0);"></path>
			<path d="M203.784,366.816c13.001,24.818,29.608,39.439,47.216,41.773v-84.24c-20.715,0.68-40.631,5.571-58.811,14.277
				C195.414,348.762,199.287,358.23,203.784,366.816z" id="id_111" style="fill: rgb(255, 174, 0);"></path>
			<path d="M416,386c-13.785,0-25,11.215-25,25s11.215,25,25,25c13.785,0,25-11.215,25-25S429.785,386,416,386z" id="id_112" style="fill: rgb(255, 174, 0);"></path>
			<path d="M456,86c13.785,0,25-11.215,25-25s-11.215-25-25-25c-13.785,0-25,11.215-25,25S442.215,86,456,86z" id="id_113" style="fill: rgb(255, 174, 0);"></path>
			<path d="M96,136c13.785,0,25-11.215,25-25s-11.215-25-25-25s-25,11.215-25,25S82.215,136,96,136z" id="id_114" style="fill: rgb(255, 174, 0);"></path>
			<path d="M194.926,150.542c7.33-13.995,15.846-25.104,25.158-33.054c-25.908,6.486-49.125,19.821-67.616,37.961
				c9.338,9.171,19.664,16.949,30.747,23.238C186.508,168.614,190.412,159.16,194.926,150.542z" id="id_115" style="fill: rgb(255, 174, 0);"></path>
			<path d="M56,436c-8.271,0-15,6.728-15,15s6.729,15,15,15c8.271,0,15-6.728,15-15S64.271,436,56,436z" id="id_116" style="fill: rgb(255, 174, 0);"></path>
			<path d="M180.25,188.498c-12.535-6.876-24.19-15.523-34.682-25.809c-22.274,24.993-36.211,57.564-37.404,93.311h62.792
				C171.35,232.142,174.54,209.184,180.25,188.498z" id="id_117" style="fill: rgb(255, 174, 0);"></path>
			<path d="M331.75,333.498c12.536,6.877,24.191,15.524,34.684,25.81c22.272-24.992,36.207-57.561,37.4-93.308h-62.791
				C340.649,289.856,337.459,312.814,331.75,333.498z" id="id_118" style="fill: rgb(255, 174, 0);"></path>
			<path d="M291.916,404.511c25.908-6.486,49.127-19.822,67.619-37.965c-9.339-9.171-19.666-16.949-30.75-23.238
				C321.542,365.468,309.651,389.37,291.916,404.511z" id="id_119" style="fill: rgb(255, 174, 0);"></path>
			<path d="M416,376c6.701,0,12.967,1.897,18.294,5.177C458.32,345.62,471,304.183,471,261c0-118.551-96.449-215-215-215
				c-47.484,0-93.946,15.894-131.412,44.847C128.62,96.549,131,103.5,131,111c0,19.299-15.701,35-35,35
				c-6.702,0-12.967-1.896-18.294-5.176C53.679,176.379,41,217.816,41,261c0,118.552,96.448,215,215,215
				c47.484,0,93.945-15.894,131.41-44.847C383.379,425.45,381,418.5,381,411C381,391.701,396.701,376,416,376z M256,418.929
				c-87.083,0-157.93-70.847-157.93-157.929c0-87.068,70.856-157.929,157.93-157.929c86.949,0,157.928,70.736,157.928,157.929
				C413.928,348.272,342.862,418.929,256,418.929z" id="id_120" style="fill: rgb(255, 174, 0);"></path>
			<path d="M319.813,338.619c-18.176-8.702-38.089-13.592-58.813-14.27v84.24c17.606-2.335,34.215-16.955,47.215-41.773
				C312.714,358.228,316.588,348.758,319.813,338.619z" id="id_121" style="fill: rgb(255, 174, 0);"></path>
			<circle cx="116" cy="41" r="10" id="id_122" style="fill: rgb(255, 174, 0);"></circle>
			<circle cx="476" cy="471" r="10" id="id_123" style="fill: rgb(255, 174, 0);"></circle>
			<circle cx="126" cy="471" r="10" id="id_124" style="fill: rgb(255, 174, 0);"></circle>
			<circle cx="36" cy="381" r="10" id="id_125" style="fill: rgb(255, 174, 0);"></circle>
			<circle cx="36" cy="101" r="10" id="id_126" style="fill: rgb(255, 174, 0);"></circle>
		</g>
	</g>
</g>
<g id="Layer_1">
</g>
</svg>