<?xml version="1.0" encoding="UTF-8"?>
<!DOCTYPE svg PUBLIC "-//W3C//DTD SVG 1.1//EN" "http://www.w3.org/Graphics/SVG/1.1/DTD/svg11.dtd">
<!-- Creator: CorelDRAW -->
<svg xmlns="http://www.w3.org/2000/svg" xml:space="preserve"  width="149" height="64" version="1.1" style="shape-rendering:geometricPrecision; text-rendering:geometricPrecision; image-rendering:optimizeQuality; fill-rule:evenodd; clip-rule:evenodd"
viewBox="0 0 9329.14 9416.28"
 xmlns:xlink="http://www.w3.org/1999/xlink"
 xmlns:xodm="http://www.corel.com/coreldraw/odm/2003">
 <defs>
  <style type="text/css">
   <![CDATA[
    .fil3 {fill:#D2D3D5}
    .fil4 {fill:#96989A}
    .fil1 {fill:#996432}
    .fil2 {fill:#CD9967}
    .fil0 {fill:#373435;fill-rule:nonzero}
   ]]>
  </style>
 </defs>
 <g id="Слой_x0020_1">
  <metadata id="CorelCorpID_0Corel-Layer"/>
  <g id="_2781262797520">
   <path class="fil0" d="M1593.98 5680.19l-613.69 0 0 1634.35 -369.22 0 0 -1634.35 -611.07 0 0 -339.03 1593.98 0 0 339.03zm1237.68 756.61l-239.18 -625.25 -226.33 625.25 465.52 0zm741.07 877.75l-410.94 0 -215.67 -564.45 -690.48 0 -205.47 564.45 -390.06 0 757.93 -1973.39 351.03 0 803.66 1973.39zm1906.81 -1973.39l-781.02 1144 0 829.38 -367.87 0 0 -829.38 -782.78 -1144 445.96 0 521.43 799.2 518.74 -799.2 445.54 0zm1799.44 1973.39l-370.55 0 0 -873.75 -844.04 0 0 873.75 -367.86 0 0 -1973.39 367.86 0 0 760.6 844.04 0 0 -760.6 370.55 0 0 1973.39zm1258.46 31.06c-124.24,0 -229.84,-12.45 -317.27,-36.84 -87.41,-24.84 -160.64,-58.56 -219.23,-100.74 -58.56,-42.6 -104.74,-92.29 -138.44,-149.52 -33.72,-57.25 -59.46,-118.05 -76.76,-182.83 -17.3,-64.34 -27.97,-131.35 -32.42,-200.14 -4.42,-68.77 -6.63,-136.66 -6.63,-203.23l0 -1131.15 367.86 0 0 1127.16c0,111.81 9.32,202.77 27.97,273.34 18.62,71.01 46.14,126.04 82.09,165.53 35.96,39.05 80.31,66.1 132.67,80.31 52.38,14.21 112.27,21.29 180.16,21.29 68.36,0 129.16,-7.09 181.97,-21.74 52.81,-14.62 96.72,-42.14 131.77,-81.22 35.04,-39.48 61.69,-94.5 79.89,-164.63 18.18,-70.11 27.53,-161.07 27.53,-272.88l0 -1127.16 370.54 0 0 1131.15c0,136.67 -11.99,259.14 -35.96,367.86 -23.52,108.28 -65.69,199.69 -125.14,274.69 -59.93,75 -140.67,132.22 -242.72,171.71 -101.65,39.5 -231.2,59.03 -387.88,59.03z"/>
   <path class="fil0" d="M1892.54 9042.13l11.8 -2.13 9.51 2.13 2.12 -1.06 6.33 1.06 7.4 -2.13 11.63 -6.34 12.68 -6.52 7.39 -5.28 6.35 2.12 12.69 0 3.16 -5.29 11.63 -8.46 7.4 -6.34 12.68 -11.81 12.86 -5.28 8.45 -4.23 3.19 -8.45 6.33 -2.12 12.86 -10.56 4.23 -4.23 7.4 -8.46 5.47 -6.34 8.46 -6.35 4.22 -7.39 5.29 -4.05 8.46 6.15 5.29 6.35 2.1 -2.11 2.12 -10.39 2.98 -7.4 0 -4.23 5.29 -2.12 2.13 -1.06 8.27 -2.11 8.29 -9.51 2.11 -10.57 5.29 -9.5 7.23 -9.51 3.16 -7.23 2.13 -7.4 4.04 -4.23 2.13 1.07 3.16 1.06 1.07 5.29 3.16 0 0 5.28 5.47 0 6.33 -10.56 8.46 -27.66 17.78 0 6.35 -1.05 3.35 -1.07 -1.24 -8.63 0 -8.45 8.63 -12.35 2.11 -2.1 0 -9.52 -2.11 -5.29 1.05 -3.17 1.06 -2.12 2.12 -7.39 2.11 -8.46 4.24 -19.02 -4.24 -3.18 -11.63 8.46 -11.8 12.67 -1.04 8.46 1.04 7.4 -9.51 4.23 -3.16 4.22 -1.06 -2.12 -7.23 5.29 -7.39 0 -4.23 2.11 -5.47 3.19 -4.23 7.39 7.58 8.29 -1.07 6.16 -5.44 1.06 -1.07 0 -5.29 4.23 -5.11 2.12 -5.28 3.34 0 7.4 -2.12 5.29 1.06 2.12 -6.16 0 -9.35 6.35 -8.45 5.28 -7.24 5.29 -10.39 10.57 -3.16 0 -4.23 5.28 -10.57 6.35 -7.4 9.5 -7.4 11.46 -8.63 5.29 -6.35 9.5 -7.4 9.52 -5.29 1.05 -2.12 0 -7.56 7.4 -14.81 4.23 -7.57 5.29 -13.73 5.29 -12.69 8.46 -5.29 2.12 -6.35 4.23 -15.85 5.28 -12.68 1.06 -9.5 -1.06 -13.75 6.69 -29.58 6.35 -19.04 2.12 -13.73 -4.24 -7.4 0 -20.1 -16.92 -1.04 -8.45 1.04 -11.62 -2.1 -14.81 -1.07 -12.67 -2.1 -8.46 0 -6.34 1.04 -4.24 5.29 -6.34 0 -9.68 4.24 -6.35 -3.18 -2.12 6.35 -7.39 5.28 -2.13 -1.05 -7.4 0 -3.17 -3.17 -5.28 2.11 1.06 -3.17 -4.23 7.4 -4.24 0 -10.57 -4.24 -10.74 0 -7.4 6.34 -10.56 7.4 -5.29 2.12 -9.5 -3.18 -8.46 -1.06 -7.39 4.24 -6.35 1.05 -4.05 -2.11 -3.18 4.23 -6.35 7.4 -6.35 -2.13 -4.23 -1.05 -5.28 2.12 -5.29 -1.07 -1.06 -1.05 -5.29 7.4 -8.45 3.16 -6.34 10.58 -9.69 8.45 -6.35 8.45 -4.24 1.06 -12.67 -2.11 -15.85 6.35 -11.63 7.39 -8.46 7.4 -5.28 9.5 -9.5 6.35 -9.52 4.23 -5.29 13.75 -10.57 8.45 -11.62 0 -7.39 2.12 -7.4 4.22 -5.29 0 -5.28 14.81 7.4 0 -7.4 1.05 -4.05 -1.05 -6.35 4.23 -11.63 13.73 -4.22 4.24 -3.19 13.91 -8.45 6.34 -14.79 11.8 -11.63 7.41 -5.3 14.78 -8.45 8.65 -4.23 3.16 -7.4 3.19 -6.35 7.39 -6.34 9.52 -3.17 7.39 1.06 6.17 -4.24 8.45 -3.17 9.35 -9.5 5.29 -1.06 5.29 3.17 3.16 -4.23 4.05 -7.4 7.4 3.19 9.51 0 9.51 -3.19 0 -9.51 9.34 4.23 5.29 0 8.27 3.19 15.86 7.4 7.57 2.11 11.62 6.34 11.46 1.07 7.4 6.34 5.46 12.69 1.06 10.56 -3.35 9.51 -5.28 8.45 -2.13 5.29 -4.23 11.62 -1.06 7.4 -8.27 9.5 -7.4 12.69 -6.35 10.56 -3.34 7.41 -5.29 8.45 1.06 11.62 5.29 9.52 8.62 1.93 7.4 -7.23 2.12 -6.35 3.17 -8.45 4.22 -8.45 10.57 -6.34 11.62 -21.16 4.23 -15.85 6.35 -3.16 6.34 0 1.06 -2.13 5.12 1.06 8.45 -5.29 7.4 -4.22 8.46 -16.91 4.23 -4.23 8.62 -11.62 3.19 -9.52 10.56 -8.45 1.06 -8.46 2.1 -10.57 -3.16 -11.62 -6.35 -12.68 -2.12 -18.85 -7.39 -8.45 -5.46 -13.75 -7.4 0 -5.28 7.4 1.06 8.45 -4.23 9.52 -6.35 8.28 -9.35 5.28 -5.29 8.46 -2.1 6.34 -7.4 -2.11 -6.35 -7.4 -8.45 -7.4 -6.52 -9.34 -4.24 -3.16 -9.5 -9.52 -11.46 -8.45 -6.35 -2.12 -8.62 -2.11 -7.4 -5.29 -11.62 -2.12 -11.46 1.07 -8.45 -1.07 -23.25 8.1 -10.4 -3.16 -9.34 -5.29 -9.33 5.29 -8.28 2.12 -1.05 -2.12 -9.51 2.12 -4.24 3.17 -1.06 2.11 -8.45 -1.05 -4.22 -2.13 -6.35 4.23 -9.7 4.24 -11.63 9.51 -7.39 8.63 -7.57 2.1 -9.51 1.07 -9.52 9.5 -7.56 5.29 -4.24 6.34 -6.35 5.29 -7.39 9.52 -10.57 8.45 -8.46 9.51 -2.1 6.35 -9.35 8.46 -9.51 5.28 -3.16 6.35 4.23 1.05 -5.29 3.18 -8.46 4.22 -6.35 8.46 -6.33 6.34 -7.4 4.24 -4.23 -1.06 -6.34 8.45 -6.35 6.35 -10.4 8.46 2.12 3.16 0.87 4.23 -7.22 11.62 -6.34 15.68 -5.29 11.62 -4.23 13.75 -5.3 6.35 -10.56 5.29 -5.29 1.04 -6.35 5.3 -3.17 11.63 -3.16 6.33 1.04 2.12 -4.23 8.46 0 8.45 -4.22 9.5 -3.18 10.56 -6.5 9.52 -6.35 7.39 3.16 5.29 -2.11 6.35 -8.45 1.06 -4.22 3.18 -1.06 6.5 2.1 4.24 -2.1 1.06 -5.29 4.23 3.16 10.57 -2.1 7.4 2.1 8.45 -1.04 10.57 0 5.29 -5.3 0 -3.17 1.06 0 7.23 -3.17 6.33 -1.05 9.52 -4.25 10.57 -0.52 15.85 3.18 9.5 -1.05 12.86 1.05 9.51 -5.28 8.46 -3.19 14.79 -3.16 11.62 -1.06 11.8 2.12 14.81 6.33 12.67 4.24 13.75 1.05 7.4 12.68 22.2 9.51 14.8 8.63 12.68 11.63 11.62 4.22 3.17 5.29 12.69 10.57 8.45 10.56 10.56 15.87 12.69 11.62 7.4zm302.29 -1.24l10.56 0 14.97 -4.23 10.56 -8.46 7.41 -5.28 6.34 -7.4 9.51 -11.8 11.62 -5.29 6.35 -6.35 10.57 -11.62 6.34 -9.51 10.57 -9.5 6.34 -12.69 6.35 -10.56 6.35 -8.45 3.17 -10.58 5.29 -11.61 5.28 -6.35 7.4 -12.68 6.33 -9.34 3.18 -10.57 -1.06 -7.4 5.29 -9.51 1.06 -5.29 0 -5.3 9.5 -8.45 20.1 -15.84 11.62 -9.51 5.29 -4.24 5.29 -6.33 6.34 -5.29 9.51 0 4.22 -6.35 14.81 -2.12 13.73 -7.4 7.4 -1.04 11.62 -4.25 12.67 -6.51 4.25 -6.34 -2.12 -7.4 -5.29 2.11 -8.46 1.06 -10.57 1.06 -4.23 4.22 -7.4 -3.16 -8.45 0 -5.29 4.22 -9.51 2.13 -7.4 1.04 -9.51 1.06 -6.34 1.06 -3.19 2.12 -5.28 -2.12 -6.35 0 -5.29 3.17 -7.39 1.06 -11.62 -4.23 -3.19 3.17 -9.5 0 -8.46 -2.1 -12.67 -4.23 -5.29 -1.06 -17.97 -17.62 -10.56 -12.69 -9.51 -4.23 -10.58 -3.16 -11.61 -4.23 -5.3 -3.18 -7.39 5.29 -2.13 4.24 -9.5 0 -4.24 5.27 -7.4 6.35 -8.46 2.12 -1.05 2.12 -5.29 2.11 -6.51 9.51 -10.56 8.45 -40.16 35.77 -8.46 10.56 -7.4 13.73 -6.51 15.85 -4.24 15.87 -3.17 6.33 -6.35 15.87 -3.16 6.33 -4.24 12.68 -3.17 10.57 -2.12 7.4 1.06 9.33 4.23 3.19 -3.17 4.23 0 4.22 5.29 9.51 1.06 9.52 3.16 6.33 8.46 13.74 6.35 10.57 8.62 12.69 7.4 6.34 6.35 9.68 6.34 6.35 6.34 10.56 10.56 9.51 11.64 3.18zm-25.37 -58.31l-3.17 -1.06 -3.18 -7.4 -1.06 -7.4 0 -9.51 -2.1 -7.4 0 -4.23 3.16 -4.24 9.51 -19.02 1.05 -9.34 1.06 -5.29 4.23 -4.24 3.19 -13.73 2.1 -5.28 1.06 -5.29 5.29 1.06 2.12 -3.19 -1.06 -13.73 2.12 -6.34 5.29 -2.13 5.29 -3.16 1.05 -6.35 2.11 -4.24 3.18 -3.17 6.51 -2.1 4.24 -4.24 2.1 -1.06 5.3 -7.39 0 -6.35 6.33 -10.57 15.87 -6.34 8.45 -7.24 2.12 -4.23 -1.05 -6.34 3.16 0 8.46 1.05 9.5 -2.11 9.51 -6.34 5.29 1.05 6.34 4.24 7.4 5.29 2.12 7.39 5.29 6.17 6.33 13.75 0 12.67 -4.23 6.35 2.13 19.03 -4.23 10.57 -9.52 19.03 -3.16 7.39 -3.19 6.34 -9.5 7.41 -3.17 3.16 -8.46 9.34 -8.45 7.4 -6.35 8.47 0 7.39 -4.23 6.34 -4.24 5.29 -9.5 9.51 -13.73 8.46 -10.58 2.12 -18.14 7.39 -14.8 3.18 -15.86 1.05 -5.28 2.12zm428.06 63.06l3.18 -4.23 1.06 -2.11 -1.06 -8.63 -4.41 -11.63 5.47 -9.5 0 -7.4 5.28 -9.68 1.05 -5.29 8.46 -16.91 4.22 -4.24 2.13 -1.06 0 -11.61 1.06 -9.52 11.62 -10.57 8.45 -14.78 4.23 -19.91 6.35 -7.4 0 -7.4 6.34 -15.86 7.4 -9.33 7.58 -7.4 5.27 -7.4 2.12 -3.17 2.12 -5.28 0 -1.06 1.06 -5.29 -3.18 -5.29 10.57 -8.45 4.24 -1.06 5.28 -1.06 10.57 2.12 4.23 -4.24 5.28 -1.05 4.23 -4.41 2.12 -5.29 2.11 -3.16 9.52 0 5.29 -3.18 3.16 -5.29 5.29 1.06 8.46 8.46 1.06 6.33 -4.25 3.35 0 5.29 1.06 8.45 -5.29 12.69 -6.34 12.68 1.06 9.51 -1.06 5.11 -7.39 0 -1.06 -1.06 -2.13 6.34 0 14.81 -7.4 9.51 -8.45 10.56 2.12 11.63 -6.34 5.11 -1.06 8.45 -3.17 10.56 -4.24 11.63 -3.17 5.29 -7.4 6.34 2.13 6.35 -1.06 5.29 7.4 12.69 11.63 13.74 7.39 6.5 6.34 8.46 5.29 12.68 5.29 6.35 12.69 11.8 5.29 0 6.35 -1.06 -2.13 -5.29 0 -7.57 10.57 -8.46 6.34 -11.61 5.29 -10.58 5.29 -9.68 3.18 -7.4 5.29 -3.16 8.45 -10.57 11.62 -12.69 8.46 -11.62 13.91 -10.56 6.35 -5.29 6.51 -8.46 3.18 -7.21 7.4 -7.41 6.17 -5.28 9.68 -7.4 2.12 -7.39 3.18 -8.46 9.51 -8.45 17.78 -17.8 6.34 -7.4 5.29 -8.45 3.19 0 3.16 -4.23 4.24 -10.56 4.05 -5.29 8.45 -6.35 3.17 -4.41 1.06 -11.62 3.18 -5.29 0 -10.56 -9.5 5.28 -3.19 -2.1 -4.22 3.16 -7.23 6.35 -6.35 9.51 -5.29 5.28 -2.1 5.47 -6.35 6.34 -5.28 6.34 -11.46 12.69 -11.63 4.22 -7.58 8.46 -2.1 16.74 -3.18 2.1 -4.23 -1.04 -5.28 3.17 -2.13 8.45 -4.23 6.35 -5.28 1.06 -4.23 4.22 -2.12 10.57 -6.35 -1.05 -4.22 6.34 -7.22 8.46 -7.4 5.11 -4.24 1.06 -21.14 21.14 -4.23 -2.13 -6.34 0 -12.69 13.75 -12.84 3.16 -5.29 -2.1 6.33 -13.75 4.41 -12.68 9.5 -8.45 10.57 -10.4 3.18 -13.75 4.23 -8.45 5.28 -8.46 4.23 -3.16 4.23 -7.41 0 -10.39 6.34 -8.45 -0.34 -21.14 2.12 -7.4 -3.18 -5.29 3.18 -2.12 5.29 -10.74 8.45 -8.46 5.29 -9.51 6.35 -10.56 -2.11 -10.56 -3.18 -8.45 -15.85 -22.21 -6.35 -5.29 -9.5 -10.56 -5.29 -6.35 -11.62 4.24 -12.69 7.39 -4.22 -2.1 -7.41 0 -7.39 5.29 -4.24 5.28 -8.45 7.4 -9.52 8.45 -1.05 7.4 -3.18 2.11 -4.23 5.29 -7.4 7.4 -10.57 5.29 -10.57 4.23 -10.56 -7.4 0 -15.85 2.12 -3.18 0 -6.35 -4.24 -6.34 -8.45 -11.63 -5.29 -3.16 -13.75 -10.57 -11.62 -6.35 -5.29 6.35 -8.45 0 -3.18 9.5 -5.29 8.46 -4.23 4.23 -5.29 2.12 -7.4 7.39 0 2.13 -4.23 -2.13 -6.35 4.23 -10.56 13.75 -3.17 5.28 -7.4 2.12 -2.11 5.29 -8.45 3.16 -4.23 6.35 -5.28 2.13 -3.19 1.04 -5.28 0 -8.45 8.46 -8.46 6.35 -10.56 -9.52 4.23 -11.61 1.06 -5.29 5.28 -10.58 0 -9.51 -4.22 -10.56 -10.56 -12.68 -9.51 -6.35 -6.35 -10.56 -9.52 -1.05 -6.33 3.17 1.05 6.35 0 6.34 -4.23 8.45 -1.06 7.41 -6.35 12.68 -2.1 3.17 2.1 4.22 -1.04 2.13 1.04 0 -4.23 7.4 -2.1 7.39 1.04 7.41 -1.04 3.16 -3.19 7.4 -1.05 5.28 -4.23 2.29 -2.12 7.4 -2.45 12.68 -4.24 4.23 -6.35 13.74 -1.04 11.63 -2.13 5.11 -5.28 3.16 3.17 10.57 -10.57 13.75 1.06 12.68 -1.06 6.35 -6.35 9.34 2.12 3.16 -4.22 2.12 0 -1.05 -5.29 0 -2.12 6.34 1.06 4.23 -5.28 4.22 5.28 12.69 -10.56 5.28 -5.29 5.29 -1.06 6.35 -6.35 6.35 -4.22 7.39 -4.24 6.35 2.11 12.86 8.46 9.52 9.5 9.51 4.23 5.28 4.24 6.35 9.51 8.62 10.56 3.18 5.29 -1.06 2.12 -4.23 -1.06 -5.45 4.22 -3.19 5.29 -2.11 0 -8.45 3.17 -9.5 4.24 -4.24 1.06 -5.29 0 -3.34 2.11 -4.23 1.06 -6.35 -4.23 -5.28 2.11 -1.06 2.12 -12.69 11.8 -12.68 1.06 -13.73 11.63 -10.57 2.1 -9.52 1.06 -8.28 6.35 -4.22 0 -7.4 7.4 -4.23 0 -13.74 4.22 -11.63 7.4 -1.04 0 -3.19 4.23 -7.39 5.29 -4.06 4.22 -6.34 5.29 -6.34 4.24 -8.46 6.33 -5.29 18.14 -5.29 10.57 -6.35 6.34 -4.22 6.35 -10.74 8.46 -9.52 10.57 -5.29 5.28 -6.33 9.5 -4.24 6.35 0 4.22 1.05 3.18 5.29 0 4.23 -3.18 9.52 -3.34 12.86 -4.24 11.61 -2.11 10.58 -2.12 7.39 -5.29 9.52 -4.22 9.51 -7.58 10.4 -6.35 8.45 1.06 4.24 -1.06 3.17 -3.16 8.45 -5.29 10.58 -6.35 5.29 -1.06 10.4 3.17 4.23 -5.29 6.34 -2.1 6.35 -8.46 5.29 -8.45 13.72 -5.28 11.63 -2.13 4.23 -4.22 14.8 6.35 10.57 9.5 7.57 12.69 11.63 14.78 17.96 9.51 8.63 6.52 3.17zm262.11 370.64l10.58 -3.18 0 -1.05 -4.24 -7.4 1.05 -14.81 1.07 -4.23 -5.29 -7.39 -3.18 -10.58 1.06 -9.51 -3.16 -3.16 1.05 -5.29 4.23 -10.56 7.4 -11.63 2.1 -9.52 5.29 -4.23 -1.06 -15.84 -5.28 -13.75 0 -14.8 3.18 -6.34 2.1 -6.35 2.12 -3.16 -1.06 -2.13 -1.06 -4.22 1.06 -4.23 -1.06 -6.34 8.46 -7.41 1.06 -9.5 -3.18 -11.62 6.34 -7.4 4.24 -9.51 4.4 -23.25 -1.06 -8.45 0 -9.52 1.06 -4.23 15.33 -9.5 -4.24 -3.18 4.24 -13.73 1.05 -10.56 10.39 -7.41 8.46 -5.28 4.23 -10.56 -6.35 -5.29 9.34 -2.12 6.34 -4.23 5.29 -2.12 2.12 -7.39 2.99 -24.32 -5.45 -7.4 0 -11.61 2.12 -9.52 4.39 -3.17 8.46 -4.24 6.33 5.3 6.35 0 -2.11 -9.52 -8.46 -8.45 0 -5.29 3.19 -2.12 3.17 0 -1.07 -5.29 -3.16 -3.16 3.16 -4.24 4.23 -2.11 2.12 -2.12 -1.06 -7.4 -5.29 -10.56 0 -9.51 9.51 -11.62 9.52 -7.4 7.39 -1.04 6.35 0 7.4 -2.13 5.28 -4.22 -1.06 -8.46 -8.45 -13.73 -5.29 -9.52 -4.24 -5.29 3.18 -5.28 8.45 -1.05 6.34 -3.18 7.4 2.12 6.35 0 0 -10.57 -4.23 -9.51 -2.12 -7.4 1.06 -4.24 5.29 -3.17 7.39 -4.22 6.35 1.06 5.29 1.04 4.24 -9.5 2.1 -7.4 -2.1 -8.62 -2.12 -13.75 0 -16.91 2.12 -1.04 6.33 -6.35 3.19 -2.12 6.34 0 13.91 -1.06 14.8 0 4.23 -3.17 8.63 1.06 3 -3.18 6.34 2.12 7.22 -1.06 3.18 -3.18 5.11 -2.1 5.29 1.06 6.17 0 -1.06 1.04 3.16 1.06 6.52 -2.1 7.4 -6.35 9.5 2.12 4.23 -4.24 9.52 -4.23 9.5 -1.06 10.56 -5.29 4.23 -4.22 3.19 -2.13 5.28 0 0 -2.1 -2.12 -5.47 -7.4 2.12 -6.33 -4.22 -8.46 -1.07 -4.22 2.12 -7.41 -3.18 -6.34 -1.06 -8.45 2.12 -10.57 -1.06 -7.57 -2.1 -5.29 0 -4.05 -2.12 -2.12 1.06 -3.17 -2.13 -4.05 1.07 -9.35 0 -7.39 -1.07 -8.3 1.07 -5.45 3.16 -6.35 -2.1 -6.33 -3.18 -7.58 -4.23 -3.18 -1.06 6.52 -2.11 5.28 -4.24 1.06 -2.1 6.35 -8.46 -3.19 -12.68 5.3 -4.24 5.46 1.06 4.23 -1.06 -1.07 -6.34 -4.39 -7.39 -2.12 -9.51 5.45 -3.19 5.29 -4.22 -1.05 -4.23 6.16 -8.46 10.76 -25.18 3.16 -26.42 5.12 0 0.88 -2.12 7.21 1.06 1.95 1.06 2.11 4.23 3.18 5.29 -1.06 5.28 -6.35 32.59 -1.06 9.5 0 5.29 2.12 6.34 -2.12 9.51 4.24 13.75 1.05 11.63 3.18 -4.24 7.57 -10.57 4.23 -13.73 7.39 -11.63 3.19 -11.63 5.99 -12.51 5.28 -9.51 1.05 -10.56 3.18 -7.4 4.22 -11.61 5.29 -5.3 0 -5.29 -3.16 -3.16 6.35 -7.4 -1.06 -5.29 6.34 -10.57 2.11 -12.68 1.06 -7.39 -6.35 -11.8 -5.29 -9.52 -6.34 -4.23 -6.35 -9.5 -4.23 -7.41 -5.29 -7.4 -6.34 -7.39 -13.73 -4.23 -3.18 7.39 7.4 13.75 5.28 5.29 -1.06 8.45 1.06 10.58 3.17 9.5 -3.17 11.81 -7.4 8.45 -4.23 -5.29 -6.34 -10.57 -7.58 -6.51 -23.25 3.18 -6.34 7.56 1.05 5.29 1.06 1.06 -2.11 3.18 -5.28 1.05 -2.12 0 -5.46 5.3 -4.24 7.39 -5.27 12.69 -5.3 10.56 -6.35 11.63 -4.23 11.62 -6.34 8.45 -22.37 45.26 -4.23 11.63 0 7.4 -4.22 8.45 -6.35 7.41 -4.23 5.28 -4.24 4.22 1.06 1.07 1.06 6.35 -3.17 7.39 -5.28 10.58 -23.25 5.28 -13.75 -2.12 -7.39 2.12 -6.35 2.11 -15.85 1.06 -4.24 1.06 -7.4 -6.35 -9.52 1.07 -29.58 2.1 -7.4 0 -6.35 3.18 1.07 7.4 3.16 13.73 5.29 8.64 2.12 5.28 3.17 10.57 2.12 8.45 1.06 6.35 7.39 3.18 7.4 -4.24 4.23 -6.35 7.4 -2.1 11.63 -1.07 4.23 2.13 8.46 -3.19 10.56 -2.1 12.68 0 11.63 -3.19 5.29 7.41 -5.29 7.4 -4.24 23.25 -8.45 16.04 -8.46 14.79 -2.11 8.46 -4.24 5.29 2.12 -1.06 -1.06 5.29 -1.06 3.16 -4.23 5.29 -3.16 10.56 -4.23 12.68 -1.06 7.41 -3.18 7.39 -4.23 8.46 -1.06 6.35 -4.23 0 -6.35 9.5 -3.16 11.62 0 6.35 -1.06 2.12 1.06 2.11 -2.12 8.46 -2.12 9.5 -2.11 5.29 -4.23 7.4 2.11 6.34 -1.06 6.34 -8.45 7.4 -5.29 1.07 -1.06 5.28 -2.12 7.4 -1.05 10.57 -3.18 5.28 -3.16 2.11 -2.64 15.86 -5.29 12.67 -4.23 16.92 -1.06 7.4 -7.94 22.19 -5.27 10.57 -5.3 9.5 4.24 7.4 -1.06 1.06 -4.23 7.4 0 7.39 -2.12 14.81 -4.23 9.51 -5.28 8.45 -2.13 7.4 -5.28 9.51 -6.35 9.52 0 8.45 -5.63 13.75 -8.46 7.39 -2.1 9.52 -3.19 13.73 -4.23 16.91 1.07 10.57 1.06 4.24 -1.06 10.56 -3.18 8.45 -4.23 9.51 -6.35 11.62 -4.23 9.52 -6.34 11.63 2.12 8.45 6.35 8.46 6.34 6.33 4.23 -1.04 7.4 4.23 11.61 7.39 12.68 5.3 10.75 8.45 4.24 9.51 6.33 3.18zm346.68 -375.39l10.56 0 14.98 -4.23 10.56 -8.46 7.41 -5.28 6.34 -7.4 9.51 -11.8 11.62 -5.29 6.35 -6.35 10.57 -11.62 6.34 -9.51 10.57 -9.5 6.34 -12.69 6.35 -10.56 6.33 -8.45 3.19 -10.58 5.29 -11.61 5.28 -6.35 7.4 -12.68 6.33 -9.34 3.19 -10.57 -1.07 -7.4 5.29 -9.51 1.06 -5.29 0 -5.3 9.5 -8.45 20.1 -15.84 11.62 -9.51 5.29 -4.24 5.29 -6.33 6.34 -5.29 9.51 0 4.22 -6.35 14.8 -2.12 13.74 -7.4 7.4 -1.04 11.62 -4.25 12.67 -6.51 4.23 -6.34 -2.1 -7.4 -5.29 2.11 -8.46 1.06 -10.57 1.06 -4.22 4.22 -7.4 -3.16 -8.45 0 -5.29 4.22 -9.52 2.13 -7.39 1.04 -9.51 1.06 -6.34 1.06 -3.19 2.12 -5.28 -2.12 -6.35 0 -5.29 3.17 -7.39 1.06 -11.63 -4.23 -3.18 3.17 -9.5 0 -8.46 -2.1 -12.67 -4.23 -5.29 -1.06 -17.97 -17.62 -10.56 -12.69 -9.51 -4.23 -10.58 -3.16 -11.62 -4.23 -5.29 -3.18 -7.39 5.29 -2.13 4.24 -9.5 0 -4.23 5.27 -7.4 6.35 -8.46 2.12 -1.05 2.12 -5.3 2.11 -6.5 9.51 -10.58 8.45 -40.15 35.77 -8.47 10.56 -7.4 13.73 -6.5 15.85 -4.24 15.87 -3.17 6.33 -6.35 15.87 -3.16 6.33 -4.24 12.68 -3.17 10.57 -2.12 7.4 1.06 9.33 4.23 3.19 -3.17 4.23 0 4.22 5.29 9.51 1.06 9.52 3.16 6.33 8.46 13.74 6.35 10.57 8.62 12.69 7.4 6.34 6.35 9.68 6.34 6.35 6.34 10.56 10.56 9.51 11.63 3.18zm-25.36 -58.31l-3.17 -1.06 -3.18 -7.4 -1.06 -7.4 0 -9.51 -2.1 -7.4 0 -4.23 3.16 -4.24 9.51 -19.02 1.05 -9.34 1.07 -5.29 4.22 -4.24 3.19 -13.73 2.1 -5.28 1.06 -5.29 5.29 1.06 2.12 -3.19 -1.06 -13.73 2.12 -6.34 5.29 -2.13 5.29 -3.16 1.04 -6.35 2.12 -4.24 3.18 -3.17 6.5 -2.1 4.24 -4.24 2.11 -1.06 5.3 -7.39 0 -6.35 6.33 -10.57 15.87 -6.34 8.45 -7.24 2.12 -4.23 -1.05 -6.34 3.16 0 8.46 1.05 9.5 -2.11 9.51 -6.34 5.29 1.05 6.34 4.24 7.4 5.29 2.12 7.39 5.29 6.17 6.33 13.75 0 12.67 -4.23 6.35 2.13 19.03 -4.23 10.57 -9.52 19.03 -3.16 7.39 -3.19 6.34 -9.51 7.41 -3.16 3.16 -8.46 9.34 -8.45 7.4 -6.35 8.47 0 7.39 -4.23 6.34 -4.24 5.29 -9.5 9.51 -13.73 8.46 -10.58 2.12 -18.14 7.39 -14.79 3.18 -15.85 1.05 -5.29 2.12zm268.63 69.05l9.5 -8.45 2.13 -10.58 -1.07 -10.57 2.13 -12.67 1.05 -10.56 1.05 -3.19 0 -2.11 7.4 -6.34 2.12 -5.3 -5.29 -4.23 0 -5.28 2.11 -7.4 2.12 -4.23 -3.18 -9.5 3.18 -6.35 2.12 -6.35 8.45 -9.5 1.07 -2.12 4.22 -4.23 13.73 -11.63 4.41 -1.05 7.4 -11.63 4.23 -12.67 5.28 -7.4 1.06 -3.16 2.11 -1.06 4.24 -11.63 14.79 -17.97 6.35 -7.4 6.51 -10.56 4.23 -5.29 7.4 -3.16 7.39 -5.29 12.68 -2.13 8.46 -8.45 3.17 -9.52 9.7 -5.29 8.45 -4.23 8.45 -9.5 8.46 -13.75 5.28 -3.17 4.23 9.5 -1.06 12.69 -7.39 8.45 -7.4 2.13 -6.35 6.35 -2.1 13.72 -6.35 12.69 -18.14 27.47 0 8.46 -5.29 3.17 -4.23 3.18 0 5.29 2.1 5.29 10.57 -2.12 6.52 -7.4 5.29 -5.29 13.75 -3.16 11.62 -2.13 8.45 -5.29 6.35 -5.28 2.12 -4.22 0 -1.07 5.29 0 6.35 -1.06 4.22 -8.45 -3.18 -6.35 -5.27 -5.28 -3.18 -5.29 4.22 -2.13 5.29 -2.1 11.63 -9.52 6.34 -5.29 6.35 -3.16 1.06 -10.57 -2.12 -8.46 3.18 -7.39 4.23 1.04 2.12 -1.04 -2.12 -8.46 3.17 -4.22 -1.05 -5.29 -7.4 -5.29 -6.34 -8.46 -4.23 -8.45 -2.13 -6.35 -5.28 -7.4 -5.29 -6.35 -8.45 -3.16 -9.52 4.22 -9.5 6.35 -4.23 7.4 -4.24 5.29 -7.39 5.29 -8.47 8.45 -8.45 5.29 -10.76 6.34 -14.79 4.23 -9.5 3.18 -10.57 -4.23 -9.52 -3.18 -9.68 -2.1 -4.23 -6.35 -9.51 -8.46 -13.73 -11.62 -10.57 -2.11 -14.98 4.23 -4.23 7.39 -1.06 7.4 2.12 11.62 1.06 5.29 -2.12 9.52 -3.17 15.85 0 11.63 -4.24 14.79 -5.29 5.29 -3.16 8.45 -2.12 6.35 1.06 5.28 -2.12 9.52 -7.39 10.57 0 2.1 -4.23 5.29 -4.25 8.46 -5.28 7.4 2.12 4.23 0 4.22 -4.23 6.35 -5.3 4.22 1.06 12.69 -7.39 15.85 -2.13 9.51 -1.05 4.24 -3.17 6.33 -4.23 10.58 -8.46 8.45 -3.16 4.23 0 2.12 -2.12 7.4 -3.17 4.23 -3.18 9.5 -5.29 5.29 -4.22 15.85 6.34 7.4 12.69 10.57 6.33 8.46 10.57 12.67 7.4 0 11.63 2.12zm366.05 -11.63l14.79 -4.22 6.35 -13.75 11.81 -13.73 2.12 -7.4 2.11 -8.45 4.24 -8.46 5.28 -11.62 8.45 -3.17 1.06 -7.4 1.06 -1.06 4.22 -3.16 5.29 -5.29 8.46 -4.23 7.39 -4.24 -2.1 -5.29 0 -4.22 5.29 -3.17 17.95 -17.97 6.35 -12.69 12.68 -4.22 6.35 -6.35 4.23 -8.46 10.56 -13.91 12.69 -5.28 3.18 -2.13 14.79 -6.34 5.29 -10.75 6.35 -3.16 4.22 -8.46 7.4 -3.16 6.35 -4.42 5.29 -6.35 6.33 -7.39 10.58 1.06 4.23 -7.4 1.06 -4.23 -2.12 -6.34 6.35 -5.29 7.4 -12.51 -4.24 -3.16 -10.57 4.05 -5.29 1.04 -7.4 4.24 -4.23 1.06 -1.06 5.29 -10.56 5.29 -16.91 16.91 -9.51 6.33 -8.45 9.52 -9.52 13.93 -10.57 4.23 -3.16 1.06 -5.29 8.62 -6.34 2.12 -10.57 6.35 -1.06 3.16 -4.23 5.46 -11.62 4.24 -12.69 9.5 1.06 1.06 -4.24 0 -4.23 5.29 -2.1 1.06 -5.29 8.45 -3.18 4.23 -4.22 3.18 -7.41 -1.06 -4.22 5.29 -12.69 14.79 -3.16 6.34 -10.57 7.41 -11.81 9.5 -13.74 3.18 -8.45 -2.12 -1.06 -12.69 -1.05 -17.97 7.4 -26.42 4.23 -8.45 3.16 -12.68 2.13 -9.69 6.17 -12.34 8.45 -11.62 6.35 -10.57 8.45 -7.4 5.11 -15.86 -2.99 -10.4 4.05 -12.68 6.35 -6.33 3.18 -4.24 16.9 -6.35 1.06 -5.29 8.29 2.12 3.16 5.29 7.41 -5.29 9.5 -2.12 9.34 1.06 4.24 1.06 8.45 -1.06 1.07 4.23 8.61 0 2.12 -5.29 2.12 1.06 7.58 -4.23 10.56 -5.28 14.27 -3.17 6.34 3.17 2.12 0 1.06 -6.35 -3.18 -6.52 -12.67 -4.22 -12.69 0 -10.56 -5.29 -8.46 1.06 -8.45 -5.29 -32.77 -4.24 -6.34 -6.33 1.06 -6.35 8.45 -13.75 -3.17 -11.62 8.45 -9.5 5.29 -21.14 8.46 -10.58 1.06 -14.79 10.57 -20.08 5.29 -17.97 3.16 -33.83 -1.06 -21.13 -6.35 -14.81 -12.67 -9.51 -5.28 10.57 -9.51 5.29 -8.46 12.68 -10.56 13.75 -1.07 15.85 -6.34 16.91 -5.29 13.73 -3.16 22.2 -9.52 12.68 -8.45 22.2 1.05 20.1 -9.51 16.9 -6.34 16.91 -4.24 7.4 1.06 1.07 -1.06 3.16 -3.16 0 -4.23 1.06 -5.29 -3.16 -10.76 -1.06 -2.11 2.12 -3.18 -1.06 -2.11 1.06 -2.11 0 -10.57 1.04 -9.52 -1.04 -9.68 3.17 -7.4 -3.17 -11.61 0 -33.82 9.5 -10.58 -3.18 -7.39 0 -5.29 4.24 2.1 8.45 8.46 11.8 6.35 6.35 10.57 19.04 24.3 11.62 7.4 -6.34 8.46 -7.4 9.51 -1.07 3.17 4.23 5.45 -5.28 11.63 -4.23 8.46 2.12 5.28 -1.06 10.56 -3.18 5.47 0 -1.05 2.12 -1.06 4.23 -3.36 6.34 -8.45 8.46 -4.24 9.5 -4.23 7.41 -5.29 9.34 0 7.4 -3.16 5.29 -2.12 6.33 -1.06 7.4 -1.06 4.23 -3.17 11.62 -9.68 13.75 -7.4 9.33 -2.13 3.17 0 13.74 -3.16 9.51 -6.35 12.68 -2.12 9.51 0 15.85 2.12 6.35 -4.23 10.56 3.16 13.75 1.07 8.45 4.22 5.3 9.51 8.45 13.92 11.63 4.23 6.35 7.4 13.73 5.29 7.4 7.4 5.28zm587.29 23.09l12.68 0 11.62 -1.06 9.51 -1.06 6.34 0 6.35 1.06 8.46 -6.35 5.29 -1.06 8.45 -3.16 11.63 -6.35 9.5 -4.22 12.52 -1.94 7.4 2.12 4.23 1.06 8.45 -2.13 9.35 -4.22 9.51 -5.29 7.39 -8.46 10.58 -4.23 5.45 -6.34 11.63 -2.11 5.29 -6.34 10.56 -6.35 7.4 -8.46 13.73 -9.51 7.58 -7.4 5.28 -1.05 8.45 7.39 7.4 6.35 11.63 9.51 9.5 5.3 5.29 4.23 3.18 2.1 7.39 2.12 9.52 3.17 8.45 4.24 5.29 7.39 16.03 5.11 9.52 8.46 9.5 2.11 10.57 4.24 11.62 -2.12 12.69 -2.12 7.4 -5.29 13.91 -4.23 11.63 2.13 4.23 -1.06 4.24 1.06 10.56 0 4.23 -1.06 5.28 -3.17 5.29 -4.24 2.12 -2.11 7.4 -9.7 10.39 -2.1 3.19 0 2.1 -6.35 4.24 -3.18 5.29 0 -1.06 -6.35 1.06 0 0 -3.16 2.11 -5.29 0 -6.35 5.28 -6.35 2.12 -5.29 3.17 -3.16 5.3 -1.06 6.34 1.06 2.12 -2.12 0 -3.17 6.51 0 1.06 -8.46 -1.06 -7.4 1.06 -10.57 6.35 -5.29 1.06 -10.56 5.46 -17.44 0 -11.62 2.11 -5.29 -3.17 -4.41 1.06 -5.28 -5.29 -4.23 -2.12 -6.35 2.12 -3.16 4.23 -9.51 1.06 -15.87 1.06 -16.91 -5.29 -9.51 -6.34 -11.62 -5.29 -8.45 -4.24 -7.4 -1.05 2.12 -3.18 12.67 -2.12 11.63 4.24 11.62 -1.06 4.23 -1.06 7.4 1.06 5.29 -2.12 -1.06 -10.57 16.92 -1.05 8.46 -1.05 7.4 -3.19 7.39 3.19 4.23 -3.19 4.41 -3.16 5.29 -7.4 7.39 -3.16 4.24 -9.52 8.45 -5.29 7.41 -6.35 11.62 -4.23 10.57 -7.58 7.4 -10.56 5.29 -6.35 5.29 -6.34 8.45 -12.68 9.52 -7.4 2.1 -2.12 2.13 -12.85 3.16 -8.46 6.35 -9.5 7.4 -16.91 2.1 -10.57 -1.04 -5.29 -2.12 -9.52 0 -9.67 -1.07 -13.75 -4.39 -11.63 -6.34 -9.5 0 -2.11 -2.13 -9.52 -3.16 -10.56 -10.56 -2.12 -7.41 4.24 -9.5 7.39 -8.46 9.52 -5.29 2.11 -2.1 4.24 -3.18 2.1 -1.06 5.29 -2.11 6.35 -4.24 6.35 -5.27 10.56 -8.46 4.23 -9.5 7.57 -9.52 4.23 -3.17 -1.06 -5.28 -1.04 -1.07 3.16 -3.16 2.12 -4.24 0 -5.29 9.5 -3.17 7.41 -12.69 3.16 -9.5 6.35 -9.51 9.5 -11.63 6.35 -9.52 9.52 -12.67 5.28 -9.52 9.69 -15.85 4.22 -7.39 -1.06 -4.24 -1.04 -8.45 5.28 -14.81 -1.05 -10.57 2.1 -8.45 5.3 -13.75 3.17 -10.56 1.06 -11.63 2.11 -9.5 -1.05 -9.5 1.05 -10.76 3.18 -8.45 -2.13 -7.4 2.13 -6.35 -2.13 -8.45 -3.16 -9.51 -4.23 -6.34 1.05 -4.23 -4.23 -7.4 -2.12 -12.69 -6.33 -7.4 -2.12 -7.39 -6.35 -7.41 -7.58 -7.4 -4.23 -10.57 -4.22 -6.34 -8.46 -8.45 -7.39 -9.51 -10.57 -5.29 2.11 9.51 5.29 15.85 3.18 13.74 4.23 14.8 2.1 10.56 3.18 10.56 -3.18 5.29 -1.04 9.52 -1.06 10.56 1.06 10.57 0 12.67 -2.13 12.68 -5.28 12.87 -1.06 11.62 -2.11 10.56 -3.18 19.04 1.06 5.29 0 9.5 -11.63 23.25 -3.16 11.63 -4.24 10.56 -4.23 13.73 -4.22 11.62 -13.93 23.25 -5.29 7.41 -8.45 8.45 -7.4 5.28 -6.35 9.52 -2.1 8.45 -4.24 8.46 -2.11 3.17 -2.12 6.35 0 4.22 -9.5 10.57 -7.4 5.29 -8.45 3.18 -12.68 10.57 -6.35 10.56 -7.57 9.5 -6.35 5.29 -2.1 3.18 -10.57 -2.12 -11.62 -9.5 -8.47 -7.41 -4.22 -11.62 -7.4 -4.23 -4.39 -8.45 -6.35 -3.18 -9.5 -9.5 -6.35 -14.81 -14.62 -16.91 0 -12.67 -4.24 -8.46 -3.17 -7.4 -2.11 -5.28 -4.23 -13.75 -2.11 -10.56 -4.24 -13.75 -2.99 -8.45 1.93 1.06 -1.05 -4.24 -0.88 -5.29 -2.12 -3.16 2.12 -3.17 -2.12 -5.3 -2.11 -11.63 0 -10.56 -1.05 -4.23 2.11 -6.35 -2.11 -6.33 -2.13 -7.4 2.13 -6.34 2.11 -8.46 -2.11 -6.34 3.16 -10.58 1.06 -7.39 1.06 -12.86 2.99 -13.75 6.35 -7.39 5.28 -2.13 9.51 -4.22 4.24 2.11 3.17 1.06 6.17 0 11.63 -3.17 6.34 -6.35 8.62 -10.56 7.4 -12.69 6.35 -9.5 10.56 0 7.4 -5.29 3.16 -6.34 6.35 -10.57 8.45 -9.52 11.8 -2.1 9.52 -8.46 9.5 -10.57 10.56 -7.39 12.69 -6.35 8.45 -6.34 6.34 -13.93 5.29 -11.62 3.18 -8.45 2.11 -10.57 12.68 -12.69 0 -4.22 1.07 -5.29 -4.23 -11.62 -8.47 -5.29 -3.16 -8.46 -8.46 -12.67 -8.45 -5.3 -7.4 -7.39 -5.29 -11.63 -6.35 -6.35 -5.28 -3.17 -7.4 -6.34 -9.51 -8.46 -8.45 -4.23 -12.86 2.12 -13.75 4.23 -5.28 6.35 -3.17 2.1 -7.4 -1.04 -9.5 2.1 -8.46 3.18 -3.34 1.05 -2.12 -2.1 -5.29 5.28 -7.4 3.17 -5.28 9.52 -9.34 7.39 -6.35 4.23 -6.35 5.3 -4.23 7.39 -2.1 3.18 -1.06 3.17 -5.29 3.18 -12.16 10.56 -6.35 11.63 -2.1 5.29 -7.41 6.33 -2.29 4.24 0 7.4 -3.17 6.34 -4.22 10.57 -8.47 7.4 -2.1 10.74 -4.24 9.51 0 15.87 -6.35 0 -1.04 3.16 1.04 6.35 -1.04 7.4 0 7.39 -5.29 8.46 -1.06 8.45 1.06 11.63 -1.06 11.62 -2.13 11.63 -5.28 8.46 -8.45 2.1 -5.29 4.23 -2.12 6.35 -7.4 6.34 -8.45 2.13 -9.7 5.29 -13.73 9.5 -12.69 6.35 -5.29 11.62 1.07 6.35 0 6.35 -4.23 7.39 -5.29 6.34 -2.12 2.13 -1.06 3.16 -4.22 0 -8.45 7.41 -6.35 4.22 -8.46 2.12 -8.45 5.29 -6.34 8.45 -7.41 4.24 -3.16 4.23 -3.18 7.39 1.06 10.58 -6.35 11.45 -3.16 6.34 -9.51 8.46 -6.35 7.4 -4.24 5.27 2.12 7.4 1.06 4.23 -3.18 7.4 -2.1 6.35 -5.29 9.5 -8.46 10.57 2.12 8.46 -6.34 10.57 -2.13 6.34 5.29 2.11 2.12 2.12 -2.12 4.22 0 5.29 -1.05 5.29 -1.06 4.24 -1.05 9.51 3.16 6.34 2.12 16.92 2.12 11.62 2.11 9.5 -2.11 10.56 3.16 4.23 7.41 8.47 6.34 12.68 6.35 9.51 3.17 10.56 6.35 1.06 3.16 5.29 4.23 9.5 13.74 9.5 11.63 7.4 7.4 2.12 10.56 8.62 5.29 2.12 15.85 9.51 8.45 2.12 10.57 6.35 10.58 2.1 8.45 6.35 9.51 2.12zm95.48 -497.81l5.28 -12.69 4.23 -6.35 1.06 -7.39 2.11 -6.35 7.23 -14.79 3.17 -7.4 5.11 -11.62 2.12 -4.23 9.33 -7.57 5.29 -10.57 18.86 -19.03 13.9 -4.23 8.47 -3.18 9.5 -3.17 8.46 -2.12 12.67 -9.5 8.64 -5.29 7.4 -1.06 6.33 5.29 0 8.46 -5.28 6.34 -8.45 11.63 -7.58 8.45 -6.35 7.4 -8.45 5.29 -4.23 5.29 -5.3 1.06 -5.29 3.16 3.18 4.4 -4.24 9.52 -3.17 4.22 -3.16 6.35 -8.46 6.35 -10.74 4.23 -4.23 6.34 -7.4 8.45 -8.27 6.35 -10.4 6.35 -7.24 7.4 -9.33 -1.06 -6.35 1.06 -8.45 4.23zm-124.9 454.29l-12.69 -4.23 -10.4 -1.06 -8.45 -6.33 -14.81 -4.24 -9.5 -9.51 -10.57 -13.74 -3.18 -13.73 -3.51 -14.79 -3.19 -17.97 -4.22 -11.63 0 -8.46 4.22 -3.16 4.25 -5.29 1.04 -3.17 2.12 -4.24 4.23 -6.35 -2.11 -6.33 1.41 -14.81 -3.19 -15.85 0 -9.5 3.19 -10.57 8.45 -7.4 4.23 -10.57 9.52 -14.81 5.28 -14.79 9.51 -7.39 11.46 -8.46 6.34 -11.63 7.4 -9.33 12.68 -12.69 10.57 -9.5 12.69 -8.46 9.5 -4.23 7.41 -7.4 10.56 -6.34 3.17 -9.52 3 -7.39 5.29 3.17 1.06 10.56 4.23 27.48 5.99 23.25 2.1 8.28 2.13 5.28 7.39 14.81 5.3 11.62 1.05 7.4 5.28 8.46 3.19 7.4 5.29 13.73 5.45 11.63 6.35 8.45 4.22 9.52 11.62 5.29 5.29 8.45 4.23 7.4 9.35 3.17 1.05 5.3 5.29 6.33 10.56 8.46 3.18 6.35 8.45 6.34 4.4 5.29 4.23 4.23 8.46 4.22 4.23 8.46 2.1 7.4 -1.06 5.28 -8.45 2.13 -2.11 0 1.05 3.16 -21.3 6.35 -4.23 5.29 -4.24 0 -7.39 5.28 -6.35 3.19 -5.11 2.1 -5.28 4.24 -9.51 4.23 -16.91 4.22 -10.76 3.19 -8.45 5.28 -5.29 3.17 -15.85 2.12 -8.46 2.11 -7.39 3.18 -9.52 0 -10.57 4.23 -8.27 -1.07 -6.35 1.07 -6.35 3.16 -3.17 -1.04 -9.51 3.16 -12.33 3.17zm780.89 60.95l6.35 -3.16 3.16 -4.25 0 -1.04 11.63 -25.38 8.46 -3.16 8.45 -9.52 16.91 -9.51 5.29 -4.22 4.23 -7.4 1.06 1.06 7.4 1.07 6.34 2.1 7.58 -1.05 3.17 -4.24 2.1 -1.04 -1.04 -2.12 4.22 3.16 2.12 1.06 4.23 -3.16 6.52 0 8.45 -9.51 7.4 -3.18 4.22 2.12 7.58 1.06 4.23 2.11 0 -5.29 4.24 0 9.51 8.46 5.28 -2.12 7.4 1.06 5.29 3.16 22.2 -17.25 5.29 -2.12 12.68 7.4 7.39 -4.22 -2.1 -4.23 2.98 -4.24 22.2 -1.06 4.23 3.19 4.22 2.11 9.52 2.11 2.11 2.12 6.34 -5.29 1.07 2.11 7.39 4.24 4.24 -3.18 7.4 -2.11 6.33 -2.11 6.35 0 25.19 2.11 9.52 5.29 7.39 -1.06 8.46 -1.06 5.29 3.17 4.39 -1.05 2.12 -2.12 -1.06 -5.28 -6.51 -9.51 -3.17 -6.35 -1.06 -10.56 -7.4 -9.52 -5.29 -7.39 -8.45 -4.25 -4.24 -1.04 -4.23 2.1 -4.23 -1.06 -6.34 -2.1 -8.28 -1.06 -6.34 4.22 -28.55 2.13 -12.68 -2.13 -9.5 1.06 -6.35 4.23 -9.5 -1.06 -7.4 2.12 -12.5 -1.58 -8.46 3.16 -15.85 2.13 -9.5 1.05 -6.35 1.06 -6.35 3.17 -10.56 -1.06 -6.35 1.06 -7.4 2.12 -6.33 -1.06 -6.54 -3.18 -7.39 3.18 -11.62 -1.06 -12.87 7.04 -11.62 1.06 -8.64 4.23 -16.91 0 -8.45 -2.11 -6.35 2.11 -8.45 -1.05 -3.18 -3.18 1.06 -11.63 5.29 -13.72 7.4 -5.29 4.23 -4.23 4.22 -9.52 1.06 -8.45 2.12 -13.75 2.11 -10.56 7.4 -17.09 5.29 -8.46 12.86 -12.67 7.39 -9.52 3.18 -7.39 3.17 -4.23 -2.11 -6.35 0 -14.8 4.23 -9.51 0 -10.56 6.51 -7.4 9.51 -13.73 8.46 -10.57 9.68 -12.68 6.35 -19.03 2.12 -4.23 6.35 -6.35 10.57 0 11.62 2.12 14.79 -2.12 8.46 -3.16 12.67 -6.35 11.62 1.06 5.11 0 10.56 -2.12 15.85 1.06 6.35 0 3.18 -3.18 0 -3.17 3.17 -4.23 4.22 3.17 3.19 -3.17 4.23 1.05 8.45 0 7.4 -1.05 3.17 -2.12 6.35 2.12 3.18 0 5.11 -1.05 9.5 0 1.07 2.1 6.34 -1.05 3.17 4.23 4.23 0 5.3 4.23 8.45 -3.17 6.34 -5.29 3.17 -3.18 9.69 1.06 3.17 0 6.35 -3.16 12.68 3.16 13.73 0 11.62 3.17 11.63 0 5.29 -5.29 4.23 -6.33 0 -8.46 -3.17 -2.12 -3.18 -5.29 -3.17 -2.1 -3.16 -5.29 -5.29 -13.75 -9.52 -8.45 -9.5 2.11 -19.04 0 -8.45 -1.05 -11.62 3.17 -7.58 3.16 -15.85 -1.4 -11.63 0 -9.5 3.18 -4.23 -1.06 -4.24 2.12 -8.27 1.05 -3.19 -1.05 -3.17 2.11 -7.4 -2.11 -7.39 4.23 -8.47 -1.07 -3.16 1.07 -7.4 -1.07 -3.16 3.19 -4.23 1.04 -5.3 2.13 -9.51 -2.13 -5.29 2.13 -9.5 1.06 -8.27 -4.23 -8.46 4.23 -6.35 -3.19 -4.22 3.19 -4.23 -4.23 -9.52 2.1 -9.51 -1.06 -3.16 -8.45 1.05 -7.4 2.11 -8.45 -3.16 -8.46 4.23 -9.5 5.29 -7.4 9.5 -3.17 7.4 -8.46 1.06 -9.5 2.1 -9.5 1.06 -8.64 5.29 -10.57 6.35 -7.4 1.06 -11.62 2.12 -10.57 5.29 -8.45 4.04 -8.46 3.17 -8.45 2.12 -5.29 11.62 -8.46 8.45 -11.63 0 -9.5 3.18 -7.41 3.17 -8.45 3.16 -9.52 11.62 -11.61 8.47 -7.4 8.45 -1.07 9.5 -1.06 6.35 -3.16 14.63 2.1 12.67 -6.33 10.58 -1.06 8.45 -5.29 7.4 2.11 7.56 3.18 6.35 2.11 7.4 -2.11 4.22 1.06 8.46 -1.06 8.45 -3.18 11.63 -1.05 39.1 -9.15 2.12 2.1 4.23 0 9.5 -2.1 9.52 0 10.57 3.16 5.28 0 2.11 -1.06 5.29 2.13 3.18 1.05 2.11 -5.28 6.34 3.16 4.24 1.07 1.05 0 5.29 -1.07 5.3 4.23 4.23 5.29 2.1 -1.05 5.29 0 6.34 -3.18 6.35 5.29 5.29 1.06 7.4 0 3.16 -9.51 -2.1 -5.28 -1.06 -9.52 -6.35 -12.67 -7.4 -12.86 -6.34 -8.46 -13.73 -10.57 -11.63 -1.06 -13.74 0 -4.23 2.13 -9.5 -1.07 -5.29 0 -3.18 2.13 -69.76 9.5 -5.28 1.06 -10.57 -1.06 -4.24 2.12 -8.45 -2.12 -8.45 4.22 -16.04 -1.24 -19.02 -5.29 -12.68 3.19 -8.64 0 -9.51 3.16 -12.68 3.17 -15.86 -3.17 -14.78 -1.06 -14.81 3.18 -14.79 -2.12 -9.5 0 -10.57 -3.16 -10.58 4.23 -6.33 0 -10.57 5.28 1.05 14.79 9.52 12.69 5.29 7.4 0 7.4 -4.23 8.46 1.04 12.68 -3.16 9.51 0 7.39 -5.29 10.58 -6.34 7.39 -3.19 11.81 -3.17 6.35 -1.06 4.24 -1.04 5.29 -3.18 8.45 -3.17 10.56 -4.24 2.13 1.06 5.29 -1.06 3.16 -4.23 6.51 -8.45 4.24 -1.06 10.57 -5.29 6.33 -4.24 10.58 -2.1 12.67 -4.23 5.29 -4.24 11.8 -6.34 10.58 -7.4 13.73 -8.46 7.4 -4.23 10.57 -7.4 9.5 -4.23 11.63 -9.5 4.23 -9.5 1.06 -5.29 1.06 -4.24 4.22 1.06 4.23 0 5.29 5.28 11.63 2.13 10.56 1.06 10.58 -2.12 11.62 -6.35 6.34 -1.06 8.46 -5.29 7.4 -3.16 7.4 -2.13 9.51 -6.34 10.57 -4.23 12.67 -3.17 4.24 -3.18 8.45 -5.29 6.35 -12.68 19.03 -5.29 9.51 -4.23 10.56 0 8.45 -2.1 6.35 -4.24 10.56 -4.23 12.68 -8.45 13.93 0 8.45 -6.35 8.46 -5.29 9.5 -3.18 13.75 -7.39 6.33 -3.19 6.35 -4.22 9.52 -3.18 7.39 -5.29 7.4 -2.1 4.23 -6.35 -1.06 -10.57 10.56 -7.4 2.12 -10.56 -2.12 -7.4 1.06 -3.16 8.46 2.1 9.68 4.24 6.35 2.11 6.35 6.35 7.4 8.46 9.51 5.28 8.45 5.29 4.24 5.29 9.51 11.62 3.16 3.17 4.25 11.62 9.5 14.81 8.45 1.04 1.06 4.25 5.29 9.5 1.06zm475.62 -32.05l7.39 0 0 -2.12 3.18 -3.16 -1.06 -11.63 5.28 -20.09 6.35 -14.79 10.56 -9.51 3.18 -12.68 9.51 -2.12 3.16 -6.35 6.34 -6.35 6.35 -4.23 5.28 -7.39 6.35 -9.52 9.5 -5.29 5.29 -7.39 3.18 -3.18 7.4 -11.63 8.46 -10.56 9.5 -8.45 9.5 -11.63 10.58 -7.4 10.57 -5.29 1.04 -7.4 7.4 -5.29 3.18 2.13 2.11 0 6.34 -9.51 9.51 -13.75 13.75 -27.47 4.22 -14.79 -6.35 -11.63 -19.01 9.51 -7.4 10.56 -3.17 4.23 -6.35 3.18 -1.05 3.16 -7.41 2.13 -4.22 11.62 -3.17 8.45 -2.11 2.13 -3.19 -2.13 -4.23 1.06 -5.29 2.12 -5.28 6.34 -9.5 10.58 -6.35 10.56 -6.35 6.35 -8.45 6.33 -9.52 5.29 -9.51 7.4 -2.12 7.41 -3.16 6.34 -4.23 4.23 -7.4 4.22 -4.22 3.19 -3.19 2.1 -3.16 1.06 -4.23 -1.06 -7.4 5.29 -20.08 14.81 -6.34 0 4.22 -8.46 -2.12 -1.06 -1.06 -6.35 6.35 -6.33 -1.05 -15.87 0 -13.73 6.88 -19.03 4.22 -10.57 1.06 -4.22 4.23 -3.17 1.06 -10.58 3.17 -7.39 6.35 -1.06 1.05 -1.07 0 -5.28 -2.1 -7.4 5.29 -9.51 8.45 -8.45 1.06 -11.62 6.35 -21.14 5.29 -17.97 7.75 -12.69 4.23 -13.74 2.11 -9.51 7.4 -13.73 -2.11 -5.3 3.17 -2.1 4.22 -9.51 2.13 -2.12 4.22 -6.35 8.46 -16.91 8.45 -7.4 6.35 -7.39 3.17 -5.29 3.18 -9.52 4.22 -7.39 5.29 -4.23 3.18 -7.4 2.11 -9.51 0 -2.12 3.18 -4.23 2.11 -8.46 2.12 -4.22 5.29 -9.51 6.35 -6.34 10.56 -7.41 9.5 -6.34 7.4 -9.5 0 -10.57 -7.4 -9.52 -4.22 -8.45 -9.51 -4.22 -9.52 -9.5 -6.33 -5.29 -4.24 -7.4 -5.29 -7.4 -4.22 -5.29 -7.4 -5.28 -1.05 6.35 -2.12 5.29 -4.23 12.68 -3.18 8.45 -3.16 7.4 2.1 10.57 -3.16 13.74 -9.51 10.56 -6.34 12.68 -4.23 4.24 -3.19 8.45 -4.22 11.63 -8.46 12.68 -5.29 12.67 0 5.29 -1.04 11.63 -4.24 8.46 0 3.16 -9.51 3.18 0 12.67 -5.45 4.24 -4.23 5.29 -6.35 10.57 -2.12 8.45 -4.22 9.52 -1.07 13.73 -9.68 26.43 -12.68 16.9 -1.06 6.34 -3.17 21.16 -3.18 6.33 -8.45 9.52 -4.23 11.62 3.17 5.29 1.06 3.16 -3.18 15.86 -6.87 12.68 -4.23 9.51 -5.29 6.34 -3.18 9.51 1.06 4.24 -3.17 13.73 -4.24 9.52 -4.23 -1.06 -1.06 -1.06 0 8.45 -2.1 10.56 2.1 10.58 -3.16 9.51 -3.18 10.56 -5.29 5.28 -1.05 8.46 -3.18 8.45 -1.06 12.69 0 15.86 1.06 11.62 12.69 9.5 8.45 10.57 11.62 3.18 7.41 9.5 4.22 8.46 13.75 10.56zm221.78 -7.57l29.77 -7.4 10.56 -7.39 7.4 0 3.17 -6.35 3.16 -10.58 6.35 -4.23 5.29 -5.28 4.24 -3.17 3.17 -4.24 2.11 -7.56 8.45 -6.34 9.5 -12.52 20.1 -11.45 8.45 -9.51 7.4 -12.51 3.17 -10.38 6.34 -5.3 6.35 -7.56 6.35 -4.24 6.35 -8.45 8.45 -8.45 9.52 -25.37 11.62 -6.52 20.08 -23.25 10.56 -10.56 9.51 -13.73 -9.51 4.23 -7.4 7.39 -3.17 6.35 -12.69 9.51 -8.45 1.05 -9.52 5.29 -9.5 14.81 -7.4 9.67 -11.61 8.46 -8.46 12.69 -13.73 11.61 -7.4 4.24 -2.13 5.29 -5.29 5.45 -12.68 7.4 -12.67 10.38 -10.57 6.35 -8.46 5.11 -12.68 9.52 -9.51 7.21 -12.68 10.57 -11.62 10.4 -3.17 0 -13.92 2.12 -8.45 3.17 -11.63 -3.17 -7.4 -3.18 -8.45 1.06 -8.46 -8.45 -2.11 -8.3 0 -15.67 3.17 -7.39 -2.12 -7.24 -1.05 -8.45 4.23 -10.4 11.63 -1.06 10.56 -4.23 10.56 -1.23 12.69 -9.52 8.62 1.06 2.12 -6.35 6.35 -4.23 7.39 -8.45 7.4 -5.29 5.29 -3.18 9.5 -9.5 5.3 -11.8 5.29 -7.4 10.57 -5.29 5.28 -7.4 6.35 -8.45 8.45 -6.35 4.23 0 5.29 -10.56 9.52 -11.63 4.22 -9.5 9.51 -13.75 7.4 -11.62 6.35 -13.73 -3.19 -10.57 -8.45 -10.56 -2.12 -5.3 -8.45 -9.51 -6.35 -9.5 -1.07 4.22 0 8.46 -2.1 8.45 0 8.45 -3.19 9.52 -3.16 7.4 -2.12 8.45 -11.63 3.17 -6.34 -5.29 -5.29 -13.73 -7.39 -6.35 -6.35 -8.45 -23.25 -6.35 -20.09 -1.06 -9.51 5.29 -4.39 6.35 -3.18 5.28 -4.23 2.11 -7.4 4.24 -10.57 7.39 -6.35 10.57 -5.28 7.4 -6.34 5.29 -6.35 15.85 -11.8 11.63 -4.24 12.69 -4.23 5.28 -8.45 9.51 -5.29 8.46 -6.34 5.29 -1.06 6.34 0 7.39 -4.23 21.32 -1.06 6.35 -3.18 11.61 -2.11 9.52 2.11 13.91 3.18 4.24 0 3.16 -1.06 7.24 4.22 11.44 7.4 7.4 3.17 6.17 2.12 8.45 2.12 12.51 4.23 4.23 5.29 6.34 1.06 10.75 11.8 2.12 10.56 10.56 7.4 10.57 12.67 8.46 10.57 9.5 8.46 1.06zm-34.89 -137.05l-5.29 -10.58 4.23 -9.5 6.34 -10.57 8.46 -10.56 4.23 -10.74 4.22 -7.4 3.19 -5.29 2.1 2.12 2.13 -6.34 2.1 -4.23 8.46 -8.46 6.52 -3.17 4.22 -14.8 5.29 -7.4 5.28 -9.52 4.23 -7.39 6.35 3.16 9.52 -10.56 6.33 -4.22 3.18 2.1 3.17 -1.04 8.46 -4.25 3.16 3.19 5.29 0 3.18 8.45 -6.34 12.69 -9.51 11.62 0 2.12 -5.29 10.56 -6.34 8.45 -11.63 10.56 -7.4 2.13 -3.16 5.29 -1.06 2.1 -1.07 3.18 -3.16 1.06 -8.46 6.35 -10.74 7.56 -9.5 7.4 -7.4 5.29 -6.35 9.51 -4.22 7.4 -5.29 8.46 -3.18 4.23 -4.23 1.06zm539.55 -2.46l-9.5 6.34 -10.57 7.4 -9.51 5.29 -9.51 3.18 -5.28 2.1 -6.35 7.4 -6.34 6.35 -9.5 5.11 -6.35 6.35 -14.97 11.62 -11.62 7.39 -13.93 5.29 -9.5 10.58 -9.52 5.29 -5.29 2.1 -2.1 -1.06 2.1 -9.5 10.57 -6.35 1.06 -8.45 -6.35 -6.35 5.29 -5.28 5.3 -8.47 -2.12 -11.44 -1.06 -5.3 1.06 -2.1 3.17 -7.41 6.34 -3.16 3.18 -1.06 1.05 -6.35 -2.1 -2.12 -1.07 -6.33 7.4 -5.29 1.06 -8.46 0 -13.56 4.23 -8.46 7.57 -7.4 4.23 -19.01 3.16 -7.41 7.41 -5.29 9.67 -11.62 3.19 -7.39 1.04 -7.4 2.12 -7.4 7.4 -7.39 1.06 -11.63 11.61 -7.4 -2.1 -9.51 0 -9.52 -9.51 -11.62 -1.06 -7.39 -4.23 -2.13 -13.74 -10.56 -8.62 -2.12 -4.25 3.18 -4.22 5.29 -3.17 9.5 0 9.51 -2.11 1.06 -1.07 6.34 -10.56 9.51 -9.51 8.46 -3.18 3.16 -8.45 -6.33 -7.4 -6.35 -5.45 -5.29 -2.12 -7.4 -8.45 -6.35 -9.5 -7.4 -3.19 -4.23 -6.34 -9.5 -5.29 -2.12 -12.68 -3.17 -9.51 3.17 -12.68 6.34 -3.17 1.07 -7.4 1.06 -5.29 0 -5.28 6.33 -7.4 -2.1 -8.45 7.4 -8.45 4.23 -1.06 7.4 -4.24 2.1 -13.73 2.13 -7.4 5.28 -4.23 4.23 1.07 5.28 -5.29 7.41 -8.46 14.78 -9.68 2.13 -10.56 12.68 -10.57 16.9 -8.46 11.62 -5.29 6.35 -6.51 10.57 -4.22 10.56 -2.13 8.46 1.06 6.35 -2.1 2.1 -4.25 6.35 -5.28 4.24 1.06 4.23 1.06 7.39 -4.23 10.58 -6.34 6.35 2.1 7.39 -2.1 9.68 1.04 9.52 -2.1 10.57 5.28 16.91 10.56 16.91 7.41 11.63 11.8 9.67 7.39 8.46 5.3 13.73 4.23 4.23 13.73 7.4 24.48 -3.17 7.4 -5.28 2.11 -7.4 9.52 -6.35 7.39 -11.63 10.57 -5.45 14.8 -6.35 6.35 -9.5 8.45 -8.46 5.29 -4.23 12.69 -7.4 5.29 -13.73 3.16 -3.17 -1.05 -5.3 5.29 -8.45 2.11 -4.23 5.28 -5.46 5.29 9.69 0 8.45 -2.1 4.24 1.04 6.33 1.06 2.12 -7.39 11.62 -7.4 14.8 -6.35 8.46 -4.22 9.5 -3.17 13.93 1.04 7.4 -10.56 16.91 -6.35 14.8 -14.79 9.5 -14.79 12.69 -4.24 9.5 -9.51 9.5 -11.62 10.58 -6.35 5.29 -11.62 4.23 -5.29 4.22 -8.62 11.62 -4.24 4.23 -10.57 7.24 -6.33 2.1 -8.46 6.35 -7.4 5.29 -6.51 8.46 -7.39 7.4 -9.52 6.34 -7.39 6.34 -12.69 10.57 -8.46 7.4 -1.04 9.51 -6.35 3.18 -4.23 4.23 -8.46 2.12 -2.12 6.33 -8.45 6.35 -9.51 10.58 -7.4 6.33 -7.4 9.52 -8.45 4.23 -4.23 -2.12 -2.12 3.18 -2.12 2.1 -5.29 -2.1 -7.39 7.39 -8.47 12.68 -5.28 9.51 -10.56 6.35 -8.45 10.4 3.17 8.46 0 10.56 -2.12 6.35 2.12 12.68 7.4 9.51 9.5 3.16 9.5 -3.16 7.41 6.34 7.4 8.45 29.58 14.8 8.46 3.18 10.57 -4.23 2.1 -4.24 5.29 0 6.35 -1.05 9.52 -5.28 8.45 -2.12 8.46 -5.29 8.45 1.06 14.81 -8.46 6.33 -5.29 7.57 -6.34 5.29 1.05 15.85 -15.84 7.4 -4.23 4.23 -9.52 5.45 -8.45 8.46 0 6.35 -12.51 7.39 -7.4 -1.04 -7.4 8.45 -5.29 1.06 -9.51 5.29 -4.24 4.22 -8.45 1.06 -11.62 0 -2.13 5.29 -10.56 6.35 -7.4 13.73 -6.33 7.4 -12.68 2.12 -9.51 -3.18 -4.24 7.4 -9.51 2.13 -9.5 3.16 -2.12 -1.06 -6.35 4.24 -7.39 5.29 -8.46 6.16 -17.09 5.29 -1.06 0 -6.35 5.28 -4.23 -1.04 -5.28 2.1 -7.4 7.4 -11.61 4.23 -12.68 4.24 -8.64 1.04 -10.57 9.7 -9.5 10.57 -9.5 9.5 -10.58 6.35 -2.11 7.4 -4.24 5.29 -11.61 10.75 -10.58 6.34 0 4.23 -4.23 7.4 -2.1 3.16 -6.52 12.69 -10.56 8.45 -4.24 7.57 -8.45 8.46 -7.41 6.34 -8.45 6.34 -6.34 10.57 -6.35 9.52 -2.99 6.34 -7.4 6.34 -9.5 7.4 -4.24 5.29 -8.45 6.35 -9.5 -5.29 -1.06zm-143.03 -74.87l-5.29 10.56 -12.67 9.52 -8.46 7.39 -4.22 3.19 0 4.22 -2.13 7.4 -4.22 4.23 -2.13 5.28 -4.23 3.17 -1.05 -2.1 -5.29 4.22 -10.57 10.56 -9.5 10.57 -1.06 7.4 -10.56 5.28 -11.63 12.87 -4.22 6.35 -6.35 6.34 -6.35 5.29 -12.69 3.16 -11.62 9.51 -13.73 6.35 -13.75 3.18 -12.86 -1.06 -9.51 0 2.13 -4.23 -2.13 -8.46 2.13 -9.5 4.23 -11.62 0 -5.29 3.16 -5.46 -1.05 -6.34 1.05 -3.17 -2.1 -5.3 3.16 -3.17 6.35 -8.46 2.12 -9.51 5.46 -9.5 3.16 -7.41 5.29 -8.45 9.52 -7.4 6.33 -7.4 4.24 -1.05 7.4 0 1.04 -3.18 -1.04 -11.63 3.17 -3.16 3.16 1.06 6.35 0 2.12 -6.35 -1.06 -5.29 3.17 -7.4 22.2 -23.26 4.24 -5.29 9.5 0 8.46 -3.16 9.51 -9.52 10.56 3.19 8.45 4.22 9.52 2.12 9.51 1.05 12.68 1.06 9.5 3.18 3.17 10.57 1.06 7.4 -4.23 7.39 -2.12 7.41 -5.28 8.45zm-106.05 293.12l-1.06 6.35 -2.1 5.28 -6.35 9.51 -2.12 8.46 -9.16 12.68 -8.46 8.45 -2.1 6.35 0 13.56 -3.19 15.87 -9.5 13.73 -4.23 8.45 -3.18 3.18 -9.68 11.63 -8.45 3.16 -9.51 19.04 -4.23 3.16 -6.35 7.4 -9.68 11.63 -8.46 2.12 -2.1 8.45 -1.06 3.17 -6.35 4.24 -8.46 8.45 -9.5 7.4 -7.4 5.29 -7.4 3.17 -12.69 0 -6.35 4.24 -4.23 3.16 -1.06 -5.29 -7.39 0 -5.3 -5.28 -11.61 -5.29 4.23 -14.79 8.45 -7.4 8.46 -5.28 6.35 -9.51 7.39 -12.68 8.46 -10.57 8.45 -6.35 6.35 -7.4 6.35 -4.22 6.35 -9.51 8.45 -8.46 8.46 -9.5 10.56 -7.4 9.68 -8.45 6.35 -5.29 4.24 -5.3 4.23 -4.05 5.29 -11.61 13.73 -13.74 7.4 -5.29 8.45 -6.35 8.29 -5.29 9.5 -7.4 5.29 -9.5 5.29 -4.23 4.24 -5.28 8.45 -6.35 -1.06 6.35 1.06 3.16zm276.56 -78.55l6.35 -3.17 7.4 -9.52 7.39 -8.45 9.52 -10.57 11.44 -8.46 6.35 -7.4 7.4 -8.45 7.57 -9.51 11.63 -12.68 10.39 -5.29 5.29 -5.29 2.11 -3.18 0 -3.17 6.34 -8.46 4.23 -10.56 8.46 -13.73 5.11 0 5.29 -4.23 3.17 6.35 -2.11 8.45 -4.24 7.4 -2.11 2.1 2.11 4.23 -4.23 7.4 1.06 10.56 0 7.41 1.06 6.34 -2.12 5.29 2.12 10.57 6.35 5.28 4.23 11.63 11.62 9.5 3.17 6.34 5.29 4.23 4.24 7.4 9.5 7.4 3.17 2.11 9.52 -1.05 6.33 -1.06 10.58 -6.35 7.39 -10.56 3.18 -5.29 5.29 -8.46 3.16 -5.29 5.29 -12.68 11.63 -16.91 5.28 -9.51 5.29 -8.45 6.35 -10.58 5.29 -6.33 4.24 -6.35 9.5 -4.23 6.35 -8.46 3.17 -7.4 11.62 -13.73 14.79 -16.91 4.24 -9.51 -4.24 -12.68 -15.85 10.56 -2.12 4.22 0 6.35 -13.73 15.85 -8.46 12.69 -3.17 0 -6.34 5.29 -8.45 4.22 -7.4 4.23 -4.22 4.24 -9.52 7.4 -10.56 12.68 -13.73 7.4 -8.46 6.35 -7.4 4.23 -8.46 4.22 -10.56 3.18 -4.22 -4.24 0 -8.45 -3.19 -12.69 7.4 -8.45 2.12 -8.46 0 -5.29 3.16 -4.22 -1.05 -10.57 7.4 -9.52 12.51 -9.51 4.23 -12.68 3.17 -7.39 -4.23 -10.57 0 -8.46 8.46 -9.5 5.29 -9.51 4.23 -13.75 9.5 -11.46 6.52 -8.45 5.29 -6.34 4.23 -8.3 15.86 -11.61 4.23 -1.06 2.12 -9.52 -4.24 -9.51 -8.45 -7.57 -8.46 -9.51 -6.34 -8.45 -11.8 -8.46 -7.4 -5.28 -5.28 4.23 -2.12 10.56 -8.45 9.52 -3.18 4.23 1.06 6.35 0 4.39 -6.35 3.19 -6.35 11.61 -1.05 -1.05 -7.58 -6.34 -7.39 -7.41 -7.4 -6.51 -7.4 -8.45 -11.44 -9.52 -7.4 -6.33 -6.35 1.04 -8.27 2.13 -12.69 -4.23 -10.4 1.06 -10.4 -2.12 -6.35 -2.12 -9.5 9.51 -6.52 5.29 -2.12 -1.06 -7.4 4.22 -6.34 5.29 -4.05 2.13 0 3.16 -5.29 1.06 -3.19 4.23 -6.34 7.57 -6.35 9.51 -4.23 9.52 -5.1 8.45 -4.23 4.23 -4.22 6.17 -6.35 3.18 -6.35 4.23 -2.12 8.27 -6.33 5.29 -3.18 10.57 -5.29 6.34 -1.06 13.75 -4.23 3.16 -5.29 4.23 -3.16 8.46 -4.24 8.45 0 6.34 -7.39 12.51 -4.25 15.85 1.06 15.85 -1.06 9.51 -4.23 8.46 2.13 8.45 0 12.68 3.16 13.75 1.06 7.4 3.18 6.34 4.23 12.69 7.4 8.45 8.45 6.35 11.62 11.62 5.29 4.23 6.34 6.35 13.56 3.35zm7.4 -87.91l-11.62 -3.17 -7.23 -6.35 1.06 -10.56 -2.11 -5.29 2.11 -1.06 4.04 -5.29 4.23 -9.5 5.3 -11.62 -1.06 -8.46 1.06 -6.34 5.29 -4.24 6.33 -6.33 5.29 -2.12 5.3 -5.29 1.05 -5.28 7.23 -8.46 5.29 -4.23 -2.13 -11.63 6.35 -6.34 6.35 -4.23 3.18 -4.22 6.33 1.05 7.58 0 1.06 -3.18 -1.06 -8.45 -1.06 -4.24 4.24 -4.23 14.62 0 1.05 -5.29 3.17 -3.16 8.46 -7.4 2.99 -6.35 9.5 -4.22 11.46 1.06 10.56 -3.19 11.46 1.06 8.45 3.17 2.12 2.12 5.28 1.06 4.23 3.17 -5.28 14.81 -6.35 11.62 -1.05 7.39 -6.34 10.57 -4.23 11.62 -5.11 12.68 -5.29 5.29 -9.52 10.57 -8.27 8.46 -12.69 8.45 -14.61 13.75 -8.3 5.29 -5.28 8.45 -10.57 6.34 -9.68 7.41 -6.35 5.28 -8.45 4.22 -5.11 4.23 -7.4 3.19 -7.4 6.34 -8.45 1.05zm292.41 90.03l11.63 -1.06 2.12 -13.75 0 -10.57 3.16 -13.74 6.35 -10.56 2.11 -9.51 4.23 -6.35 3.17 -5.28 1.05 -7.4 2.13 -2.1 3.16 -6.35 2.13 -3.16 4.22 -2.12 4.23 3.17 2.12 -5.29 0 -4.23 -1.06 -8.45 1.06 -3.19 3.17 -6.34 1.05 -10.57 9.51 -3.16 1.06 -6.35 4.23 -2.12 8.46 2.12 7.4 0 -3.18 -5.28 1.06 -2.13 1.07 -1.06 -1.07 -3.17 -1.06 -4.22 -2.1 -4.23 13.56 -12.68 8.46 -6.35 6.33 -9.51 6.35 -3.18 14.62 -11.62 3.18 -9.51 6.35 -6.35 6.34 -4.22 8.45 -3.18 3.19 0 2.1 -7.39 3.18 -6.35 4.23 -7.4 12.69 0 3.16 7.4 -3.16 5.29 -1.06 10.56 -3.19 8.46 -6.34 6.33 -14.27 16.39 -2.11 7.4 -4.23 12.68 -1.06 14.8 -3.18 7.39 -6.33 10.57 -4.25 6.35 1.07 4.24 0 10.56 -7.4 14.79 -1.05 8.46 -1.06 6.34 2.11 8.46 0 12.68 -4.23 4.23 -3.16 4.22 -3.19 8.46 2.13 9.51 12.68 4.22 9.51 8.46 7.4 4.23 8.62 7.39 7.4 8.46 9.5 5.29 7.41 0 19.01 -19.02 0 -10.58 6.35 -8.45 3.18 -13.75 8.45 -6.35 6.35 -12.67 8.28 -8.46 5.3 -3.16 2.1 -7.4 6.35 -2.11 1.06 0 4.22 2.11 0 -4.22 1.06 -3.19 -2.12 -2.1 4.23 -4.23 5.3 0 3.17 -4.24 2.12 -2.11 2.1 -6.34 0 -8.47 10.57 -3.16 7.57 7.4 7.4 -2.13 -1.06 -2.12 -1.06 -8.45 2.12 -6.35 1.06 0 4.23 -3.16 6.35 -1.06 4.05 -3.19 -1.06 -4.23 1.06 -3.16 4.22 -4.24 2.12 -3.17 3.17 -7.4 19.9 -11.63 8.46 4.24 1.06 -1.06 1.06 0 0 -19.03 5.29 -5.29 4.23 -9.5 4.22 -3.18 7.4 -8.45 10.57 -9.5 9.5 -8.46 7.4 -5.29 -3.18 -6.35 -5.29 -1.04 -8.45 6.33 -2.13 6.35 -8.45 5.29 -13.75 7.4 -6.34 2.1 -3.17 4.24 -6.35 3.17 -1.06 4.23 -1.06 2.11 -5.11 2.13 -6.33 -1.06 -30.49 23.25 -4.22 1.06 -5.28 4.23 -2.3 4.22 -4.22 3.17 -7.4 1.06 0 2.12 -3.16 7.4 -9.51 7.39 -6.35 7.4 -7.4 8.45 -5.29 4.24 -11.63 15.86 -8.28 12.68 -7.4 7.39 -4.23 7.41 -9.52 1.05 -3.16 5.29 -11.63 2.11 -13.73 3.18 -9.52 -2.13 8.46 -5.28 5.29 -10.57 1.04 -10.56 -4.23 -9.5 5.29 -10.57 8.46 -3.18 5.29 -7.4 3.16 -8.45 9.52 -5.29 2.11 -5.28 -3.16 -5.29 3.16 -2.13 2.12 -5.29 -3.18 -4.22 2.12 -9.5 5.28 -8.46 10.57 -9.5 5.83 -12.15 8.45 -13.74 7.4 -10.57 4.23 -6.35 5.28 -12.68 0 -13.73 -1.05 -12.69 -7.4 -11.63 -13.75 -12.68 -16.02 -7.39 -11.63 -6.35 -10.56 7.4 -9.51 6.33 -7.4 7.4 -4.23 5.28 -5.29 7.41 -11.45 10.56 -15.86 17.97 -9.35 8.45 -4.23 9.51 -6.34 4.24 -4.23 9.51 -17.8 17.97 -5.28 4.22 -2.11 3.17 -9.52 5.29 -8.45 11.62 -16.74 13.75 -12.68 20.08 -19.02 9.52 15.85 -22.2 11.63 -23.25 6.34 -9.52 20.97 -21.14 6.34 -11.63 4.23 -7.39 4.22 -2.12 3.19 -8.45 7.21 -10.58 -1.06 -7.39 -4.05 -6.35 -3.16 -10.57 -8.46 -6.34 -14.79 -7.4 -10.4 -7.4 -10.56 -2.12 -8.46 4.23 0 8.46 -2.11 7.39 0 10.58 -7.4 32.76 -4.22 5.29 -3.19 9.51 -1.04 9.5 -6.35 8.46 -5.45 14.79 -6.35 12.69 -4.24 9.5 -4.23 8.46 -4.23 6.33 -1.06 6.35 -6.34 6.34 0 6.35 1.05 6.35 -6.34 7.4 0 12.67 -7.4 3.18 -2.11 -1.06 -3.17 1.06 -2.12 4.23 2.12 6.35 1.04 10.56 -5.28 9.5 -5.29 6.35 -5.29 9.52 -3.16 7.39 -7.58 14.81 5.29 8.45 11.63 7.4 6.34 7.39 9.5 4.24 11.63 9.51 10.56 7.4zm394.59 4.23l4.23 -2.13 6.35 1.06 10.4 1.07 9.5 -9.51 10.56 -3.18 11.63 -4.23 4.24 -4.23 6.33 -8.46 6.35 -7.4 6.35 -12.67 10.56 -2.13 2.13 -5.28 6.34 -3.17 7.39 -2.11 3.19 -5.29 7.21 -9.51 4.24 -6.34 7.4 -11.63 11.62 -6.35 6.18 -8.46 2.11 -7.39 7.4 -5.29 5.11 -2.12 10.56 -10.56 7.57 -8.46 2.13 -4.23 8.45 -5.29 2.12 -6.34 0 -4.23 4.23 -4.22 5.28 -2.13 2.13 -6.34 8.45 -7.4 4.23 -5.45 1.06 -6.35 9.69 -15.85 7.4 -6.35 10.56 -8.46 -5.29 -7.57 -9.5 -1.05 -6.35 11.8 -8.45 7.4 -4.23 5.28 -1.06 6.35 -6.34 8.46 -6.35 9.51 -5.29 2.29 -7.4 5.29 -2.11 10.57 1.05 2.1 -3.16 -1.05 -3.17 2.11 -3.19 4.24 -5.28 0 -3.17 7.39 -6.34 5.29 -10.57 8.46 -11.62 12.67 -11.63 7.4 -7.57 3.18 -4.23 3.17 -4.23 7.4 -3.18 2.1 -7.4 2.12 -8.61 0 -9.51 6.35 -5.3 3.16 -17.78 14.81 -5.29 -2.12 -10.57 8.46 -17.79 6.33 -12.69 9.52 -12.5 4.23 -26.25 -9.51 -4.24 -15.86 -5.29 -12.67 2.12 -9.52 3.17 -6.35 -3.17 -8.45 -1.06 -8.45 6.35 -11.62 9.33 -14.81 3.17 -9.5 -4.05 -8.46 5.11 -8.45 6.35 -12.87 0 -9.5 4.23 -4.23 5.3 -10.56 11.44 -8.46 1.06 -8.46 4.23 -6.5 10.57 -12.68 6.16 -5.11 10.57 -5.29 7.4 -8.46 12.51 -4.23 10.56 -9.33 9.51 2.12 4.22 8.28 -12.68 28.36 -1.05 6.34 3.16 3.17 9.51 10.74 7.4 6.34 2.29 5.29 4.22 3.17 7.4 -11.61 3.17 -5.29 5.28 -8.63 0 -7.4 2.13 -6.35 14.96 -16.72 2.13 -5.3 8.45 -12.5 7.4 -5.29 9.51 -4.23 8.46 3.17 2.12 -6.35 0 -8.45 -3.18 -7.4 -6.35 -6.35 -9.5 -12.68 -5.29 -9.51 -8.46 -6.35 -2.1 -7.39 -6.35 -5.3 -1.06 3.18 -2.12 14.79 0 6.35 -7.4 11.62 -6.17 9.51 -6.35 2.12 -7.4 -5.29 -7.39 -11.63 -14.81 -8.45 -22.2 2.11 -4.23 -3.17 -2.12 3.17 -4.23 2.12 -3.16 -2.12 -3.18 1.06 -11.63 4.23 -8.28 7.4 -8.45 6.34 -5.29 5.29 -3.18 6.35 -5.29 5.29 -9.5 7.39 -2.12 3.18 -4.22 3.16 -6.35 3.19 -2.1 4.05 -4.24 1.06 -2.11 9.5 -1.06 8.46 -4.23 10.38 -6.34 10.58 -8.46 7.56 -13.91 13.75 0 8.45 -5.3 11.63 -4.23 7.4 -3.16 10.73 1.06 7.41 -1.06 9.5 -1.06 6.35 3.16 7.4 -3.16 7.4 4.22 11.62 0 12.69 5.11 12.68 2.13 6.35 5.28 10.57 2.12 8.45 9.51 10.56 8.45 10.57 9.52 12.68 4.23 10.57 7.39 8.46 10.58 7.39 8.45 8.46 8.81 6.35zm245.73 -6.52l29.77 -7.4 10.57 -7.39 7.4 0 3.17 -6.35 3.18 -10.58 6.34 -4.23 5.29 -5.28 4.23 -3.17 3.18 -4.24 2.1 -7.56 8.46 -6.34 9.51 -12.52 20.07 -11.45 8.47 -9.51 7.39 -12.51 3.18 -10.38 6.35 -5.3 6.34 -7.56 6.34 -4.24 6.34 -8.45 8.46 -8.45 9.5 -25.37 11.63 -6.52 20.08 -23.25 10.58 -10.56 9.51 -13.73 -9.51 4.23 -7.4 7.39 -3.18 6.35 -12.67 9.51 -8.46 1.05 -9.5 5.29 -9.51 14.81 -7.4 9.67 -11.63 8.46 -8.46 12.69 -13.73 11.61 -7.4 4.24 -2.1 5.29 -5.29 5.45 -12.68 7.4 -12.69 10.38 -10.57 6.35 -8.45 5.11 -12.68 9.52 -9.51 7.21 -12.68 10.57 -11.63 10.4 -3.18 0 -13.9 2.12 -8.47 3.17 -11.62 -3.17 -7.39 -3.18 -8.46 1.06 -8.45 -8.45 -2.13 -8.3 0 -15.67 3.18 -7.39 -2.11 -7.24 -1.07 -8.45 4.23 -10.4 11.62 -1.06 10.57 -4.23 10.58 -1.23 12.67 -9.52 8.64 1.06 2.1 -6.35 6.35 -4.23 7.4 -8.45 7.4 -5.29 5.29 -3.18 9.5 -9.5 5.29 -11.8 5.29 -7.4 10.56 -5.29 5.29 -7.4 6.35 -8.45 8.46 -6.35 4.23 0 5.28 -10.56 9.5 -11.63 4.23 -9.5 9.52 -13.75 7.4 -11.62 6.33 -13.73 -3.16 -10.57 -8.46 -10.56 -2.11 -5.3 -8.46 -9.51 -6.34 -9.5 -1.05 4.22 0 8.46 -2.12 8.45 0 8.45 -3.17 9.52 -3.18 7.4 -2.12 8.45 -11.61 3.17 -6.35 -5.29 -5.28 -13.73 -7.4 -6.35 -6.35 -8.45 -23.25 -6.35 -20.08 -1.06 -9.5 5.29 -4.41 6.35 -3.16 5.28 -4.25 2.11 -7.39 4.24 -10.56 7.39 -6.35 10.57 -5.29 7.4 -6.35 5.29 -6.35 15.85 -11.8 11.63 -4.22 12.69 -4.23 5.28 -8.46 9.51 -5.29 8.46 -6.35 5.29 -1.05 6.34 0 7.39 -4.23 21.32 -1.06 6.35 -3.17 11.61 -2.12 9.52 2.12 13.91 3.17 4.24 0 3.16 -1.05 7.24 4.23 11.44 7.39 7.4 3.19 6.17 2.1 8.45 2.12 12.51 4.23 4.23 5.3 6.34 1.04 10.75 11.8 2.12 10.57 10.56 7.4 10.57 12.69 8.46 10.56 9.5 8.45 1.06zm-34.87 -137.05l-5.29 -10.58 4.23 -9.5 6.35 -10.57 8.45 -10.56 4.23 -10.74 4.24 -7.4 3.16 -5.29 2.13 2.12 2.1 -6.34 2.13 -4.23 8.45 -8.46 6.51 -3.17 4.24 -14.8 5.29 -7.4 5.29 -9.52 4.23 -7.39 6.35 3.16 9.5 -10.56 6.34 -4.22 3.17 2.1 3.19 -1.04 8.45 -4.25 3.18 3.19 5.29 0 3.16 8.45 -6.33 12.69 -9.52 11.62 0 2.12 -5.29 10.56 -6.35 8.45 -11.62 10.56 -7.39 2.13 -3.19 5.29 -1.05 2.1 -1.05 3.18 -3.18 1.06 -8.45 6.35 -10.75 7.56 -9.51 7.4 -7.4 5.29 -6.34 9.51 -4.24 7.4 -5.29 8.46 -3.16 4.23 -4.23 1.06z"/>
   <path class="fil1" d="M4688.71 3692.15c53.45,-12.48 365.45,-219.8 449.94,-252.72l1.31 -3183.58c-33.22,-25.01 -429.28,-250.81 -450.97,-255l-0.28 3691.3z"/>
   <path class="fil2" d="M4190.12 254.53l1.71 3182.2c56.92,35.62 415.24,245.72 447.79,255.75l1.9 -3692.48c-46.7,15.83 -262.45,145.87 -337.53,189.5 -38.83,22.57 -76.36,48.54 -113.87,65.03z"/>
   <path class="fil3" d="M4642.01 4267.53l20.85 -5.52c10.35,-68.11 4.92,-440.73 -3.45,-500.39l-1016.14 -586.62 0.03 -1435.49 -450.34 257.69 -0.98 1437.64 1084.13 625.96c60.42,35.94 118.87,68.46 181.38,104.47 49.27,28.37 143.86,89.62 184.52,102.26z"/>
   <path class="fil4" d="M4659.41 3761.61c8.37,59.67 13.8,432.28 3.45,500.39l-20.85 5.52c30.23,29.3 54.95,-1 91.07,-21.92l1403.08 -809.6 1.66 -1440.8 -449.08 -258.41 -2.44 1439.27c-139.91,83.15 -1001.28,581.55 -1026.88,585.54z"/>
   <path class="fil2" d="M3691.73 1542.6l-0.43 1557.63c-0.19,45.96 -6.26,44.52 27.25,65.41l422.42 239.08 2.4 -2501.64c-36.25,5.21 -283.68,158.23 -346.81,193.03 -108.77,59.95 -105,28.02 -104.73,168.06 0.17,92.81 -0.1,185.62 -0.1,278.44z"/>
   <path class="fil1" d="M5187.28 3403.58c14.68,-2 430.99,-239.23 451.33,-258.2l0.63 -1941.42c-18.32,-17.77 -436.08,-257.36 -450.35,-257.78l-1.61 2457.4z"/>
  </g>
 </g>
</svg>
